<svg width="235" height="235" xmlns="http://www.w3.org/2000/svg" xmlns:svg="http://www.w3.org/2000/svg">
 <style type="text/css">.st0{fill:#B766DD;}
    .st1{fill:#400693;}
    .st2{opacity:0.29;fill:#833BAD;enable-background:new    ;}
    .st3{fill:#9FD8FF;stroke:#400693;stroke-width:8;stroke-linecap:round;stroke-miterlimit:10;}
    .st4{fill:#D2EFFF;}
    .st5{fill:#833BAD;}
    .st6{fill:#833BAD;stroke:#400693;stroke-width:7;stroke-miterlimit:10;}
    .st7{fill:#B766DD;stroke:#400693;stroke-width:7;stroke-miterlimit:10;}
    .st8{fill:#833BAD;stroke:#400693;stroke-width:4;stroke-miterlimit:10;}</style>

 <g>
  <title>Layer 1</title>
  <g id="Calque_1_1_">
   <g id="XMLID_1_">
    <g id="XMLID_47_">
     <path d="m40.3,69.6l2.7,-1c0.5,-0.2 55.2,-21.1 95.3,-21.1c41.3,0 82.59999,65.4 84.3,68.2l1.3,2.09999l-1.3,2.1c-1.7,2.8 -43,68.2 -84.3,68.2c-39.8,0 -93.1,-20.5 -95.4,-21.3l-2.7,-1l0.1,-96.19999l0,0z" class="st0" id="XMLID_21_"/>
     <path d="m219.3,117.8c0,0 -41.5,66.39999 -81.10001,66.39999s-93.9,-21.09999 -93.9,-21.09999l0,-11.3l0,-79.2l0,7.2l0,-7.5c2,-0.8 55.2,-20.8 93.9,-20.8c39.60001,0 81.10001,66.3 81.10001,66.3m9.39999,0l-2.59999,-4.2c-0.40001,-0.7 -10.90001,-17.4 -26.5,-34.3c-21.90001,-23.7 -42.5,-35.8 -61.20001,-35.8c-40.9,0 -96.3,21.10001 -96.8,21.3l-5.3,2l0,5.5l0,7.5l0,72l0,11.3l0,5.5l5.2,2c2.3,0.89999 56.2,21.59999 96.80001,21.59999c18.7,0 39.3,-12 61.2,-35.79999c15.60001,-16.89999 26.10001,-33.70001 26.5,-34.40001l2.7,-4.2l0,0z" class="st1" id="XMLID_17_"/>
    </g>
    <g id="XMLID_46_">
     <path d="m138.2,184.2c-39.6,0 -93.9,-21.09999 -93.9,-21.09999l0,-90.50001l0.2,0c2.2,-0.8 55.09999,-21 93.8,-21c38.39999,0 78.59999,62.6 80.89999,66.1c0.10001,0.10001 0.10001,0.2 0.10001,0.2s-2,3.2 -5.5,8.1c-12.5,17.60001 -44.60001,58.2 -75.60001,58.2z" class="st0" id="XMLID_23_"/>
    </g>
    <path d="m44.2,72.7l-0.4,9.9c2.2,-0.8 52.9,-24.1 91.7,-24.1c33.89999,0 71.39999,53.2 77.89999,67.5c-0.7,0.9 -1.09999,1.5 -1.29999,1.9c-30.40001,-27 -35.5,-34.6 -52.10001,-46.40001c-3,-2.10001 -6.10001,-3.4 -9.2,-3.8c-33.7,-4.3 -86.7,8.4 -106.7,20.9c0.1,-10.59999 0.1,-25.89999 0.1,-25.89999z" class="st2" id="XMLID_44_"/>
    <g id="XMLID_30_">
     <path d="m133.89999,151c-19.3,0 -34.9,-14.8 -34.9,-33.1s15.6,-33.2 34.9,-33.2c18.2,0 33.09999,13.2 34.8,30c0.09999,1.10001 0.2,2.10001 0.2,3.2c0,17.2 -13.7,31.3 -31.40001,32.99999c-1.19998,0.10001 -2.39998,0.10001 -3.59999,0.10001z" class="st3" id="XMLID_31_"/>
     <path d="m136.3,145.39999l0,0c0,-0.90001 0.2,-1.7 0.2,-2.60001c0,-14.2 11.5,-25.9 26,-27.5c0.10001,0 0.2,0 0.3,0c0.09999,0.9 0.2,1.7 0.2,2.6c0,13.9 -11.10001,25.30001 -25.10001,27.30001c-0.39999,0.10001 -0.59999,0.10001 -1.59999,0.2z" class="st4" id="XMLID_29_"/>
    </g>
    <path d="m43.3,82.5l0,-10.1l1,-0.3c2.2,-0.8 55.1,-20.6 93.9,-20.6c39.60001,0 81,66.3 81,66.3s-1.89999,3.2 -5.39999,8.1c-15.2,-18.4 -43.7,-50.2 -62,-56.5c-23.10001,-7.9 -92.5,6.4 -108.5,13.1z" class="st5" id="XMLID_28_"/>
    <polygon points="44.1,104.9 44.2,109 72.8,107.8 72.8,104.3   " class="st2" id="XMLID_26_"/>
    <path d="m90.2,51.8c0,0 -13.8,-45.6 -75.80001,-45.6c0,0 26.5,15.4 26.5,61.7" class="st6" id="XMLID_25_"/>
    <path d="m88.4,183.8c0,0 -12,45 -74,45c0,0 26.7,-14.7 26.7,-61" class="st7" id="XMLID_20_"/>
    <polygon points="70.3,109.6 70.3,123.4 6.3,119.2 6.3,113.7   " class="st8" id="XMLID_16_"/>
   </g>
  </g>
  <g id="Calque_2"/>
 </g>
</svg>
