<?xml version="1.0" encoding="utf-8"?>
<!-- Generator: Adobe Illustrator 19.0.0, SVG Export Plug-In . SVG Version: 6.00 Build 0)  -->
<svg version="1.1" id="Calque_1" xmlns="http://www.w3.org/2000/svg" xmlns:xlink="http://www.w3.org/1999/xlink" x="0px" y="0px"
	 viewBox="0 0 235 235" style="enable-background:new 0 0 235 235;" xml:space="preserve">
<style type="text/css">
	.st0{fill:#B766DD;}
	.st1{fill:#400693;}
	.st2{opacity:0.29;fill:#833BAD;enable-background:new    ;}
	.st3{fill:#9FD8FF;stroke:#400693;stroke-width:8;stroke-linecap:round;stroke-miterlimit:10;}
	.st4{fill:#D2EFFF;}
	.st5{fill:#833BAD;}
	.st6{fill:#833BAD;stroke:#400693;stroke-width:7;stroke-miterlimit:10;}
	.st7{fill:#B766DD;stroke:#400693;stroke-width:7;stroke-miterlimit:10;}
	.st8{fill:#833BAD;stroke:#400693;stroke-width:4;stroke-miterlimit:10;}
</style>
<g id="Calque_1_1_">
	<g id="XMLID_1_">
		<g id="XMLID_47_">
			<path id="XMLID_21_" class="st0" d="M40.3,69.6l2.7-1c0.5-0.2,55.2-21.1,95.3-21.1c41.3,0,82.6,65.4,84.3,68.2l1.3,2.1l-1.3,2.1
				c-1.7,2.8-43,68.2-84.3,68.2c-39.8,0-93.1-20.5-95.4-21.3l-2.7-1L40.3,69.6L40.3,69.6z"/>
			<path id="XMLID_17_" class="st1" d="M219.3,117.8c0,0-41.5,66.4-81.1,66.4s-93.9-21.1-93.9-21.1v-11.3V72.6v7.2v-7.5
				c2-0.8,55.2-20.8,93.9-20.8C177.8,51.5,219.3,117.8,219.3,117.8 M228.7,117.8l-2.6-4.2c-0.4-0.7-10.9-17.4-26.5-34.3
				c-21.9-23.7-42.5-35.8-61.2-35.8c-40.9,0-96.3,21.1-96.8,21.3l-5.3,2v5.5v7.5v72v11.3v5.5l5.2,2c2.3,0.9,56.2,21.6,96.8,21.6
				c18.7,0,39.3-12,61.2-35.8c15.6-16.9,26.1-33.7,26.5-34.4L228.7,117.8L228.7,117.8z"/>
		</g>
		<g id="XMLID_46_">
			<path id="XMLID_23_" class="st0" d="M138.2,184.2c-39.6,0-93.9-21.1-93.9-21.1V72.6h0.2c2.2-0.8,55.1-21,93.8-21
				c38.4,0,78.6,62.6,80.9,66.1c0.1,0.1,0.1,0.2,0.1,0.2s-2,3.2-5.5,8.1C201.3,143.6,169.2,184.2,138.2,184.2z"/>
		</g>
		<path id="XMLID_44_" class="st2" d="M44.2,72.7l-0.4,9.9c2.2-0.8,52.9-24.1,91.7-24.1c33.9,0,71.4,53.2,77.9,67.5
			c-0.7,0.9-1.1,1.5-1.3,1.9c-30.4-27-35.5-34.6-52.1-46.4c-3-2.1-6.1-3.4-9.2-3.8c-33.7-4.3-86.7,8.4-106.7,20.9
			C44.2,88,44.2,72.7,44.2,72.7z"/>
		<g id="XMLID_30_">
			<path id="XMLID_31_" class="st3" d="M133.9,151c-19.3,0-34.9-14.8-34.9-33.1s15.6-33.2,34.9-33.2c18.2,0,33.1,13.2,34.8,30
				c0.1,1.1,0.2,2.1,0.2,3.2c0,17.2-13.7,31.3-31.4,33C136.3,151,135.1,151,133.9,151z"/>
			<path id="XMLID_29_" class="st4" d="M136.3,145.4L136.3,145.4c0-0.9,0.2-1.7,0.2-2.6c0-14.2,11.5-25.9,26-27.5c0.1,0,0.2,0,0.3,0
				c0.1,0.9,0.2,1.7,0.2,2.6c0,13.9-11.1,25.3-25.1,27.3C137.5,145.3,137.3,145.3,136.3,145.4z"/>
		</g>
		<path id="XMLID_28_" class="st5" d="M43.3,82.5V72.4l1-0.3c2.2-0.8,55.1-20.6,93.9-20.6c39.6,0,81,66.3,81,66.3s-1.9,3.2-5.4,8.1
			c-15.2-18.4-43.7-50.2-62-56.5C128.7,61.5,59.3,75.8,43.3,82.5z"/>
		<polygon id="XMLID_26_" class="st2" points="44.1,104.9 44.2,109 72.8,107.8 72.8,104.3 		"/>
		<path id="XMLID_25_" class="st6" d="M90.2,51.8c0,0-13.8-45.6-75.8-45.6c0,0,26.5,15.4,26.5,61.7"/>
		<path id="XMLID_20_" class="st7" d="M88.4,183.8c0,0-12,45-74,45c0,0,26.7-14.7,26.7-61"/>
		<polygon id="XMLID_16_" class="st8" points="70.3,109.6 70.3,123.4 6.3,119.2 6.3,113.7 		"/>
	</g>
</g>
<g id="Calque_2">
</g>
</svg>
