<svg xmlns="http://www.w3.org/2000/svg" xmlns:se="http://svg-edit.googlecode.com" xmlns:xlink="http://www.w3.org/1999/xlink" xmlns:dc="http://purl.org/dc/elements/1.1/" xmlns:cc="http://creativecommons.org/ns#" xmlns:rdf="http://www.w3.org/1999/02/22-rdf-syntax-ns#" xmlns:inkscape="http://www.inkscape.org/namespaces/inkscape" width="369" height="391" style="">                                    <title>my vector image</title>                                    <!-- Created with Vector Paint - http://www.vectorpaint.yaks.com/ https://chrome.google.com/webstore/detail/hnbpdiengicdefcjecjbnjnoifekhgdo -->                                    <rect id="backgroundrect" width="100%" height="100%" x="0" y="0" fill="#FFFFFF" opacity="0.0" stroke="none"/>                                <g class="currentLayer" style=""><title>Layer 1</title><path fill="#f4e984" stroke="#eae023" style="color: rgb(224, 203, 11);" stroke-width="2" stroke-linejoin="round" stroke-dashoffset="" fill-rule="nonzero" marker-start="" marker-mid="" marker-end="" id="svg_4" d="M0.9994049072265625,133.92210388183594 L183.6981201171875,0.9980926513671875 L366.3975830078125,133.92210388183594 L296.61279296875,348.99871826171875 L70.78369140625,348.99871826171875 L0.9994049072265625,133.92210388183594 z" class="" stroke-opacity="1" fill-opacity="1" opacity="0.9"/><path fill="#f4e984" stroke="#eae023" style="color: rgb(224, 203, 11);" stroke-width="2" stroke-linejoin="round" stroke-dashoffset="" fill-rule="nonzero" marker-start="" marker-mid="" marker-end="" d="M2.9994049072265625,174.58877563476562 L185.6981201171875,41.664756774902344 L368.3975830078125,174.58877563476562 L298.61279296875,389.6653747558594 L72.78369140625,389.6653747558594 L2.9994049072265625,174.58877563476562 z" class="" stroke-opacity="1" fill-opacity="1" id="svg_7" transform="rotate(179.749, 185.699, 215.667)" opacity="0.74"/><path fill="#f7a85d" stroke="#e27012" style="color: rgb(226, 112, 18);" stroke-width="2" stroke-linejoin="round" stroke-dashoffset="" fill-rule="nonzero" opacity="0.67" marker-start="" marker-mid="" marker-end="" id="svg_8" d="M53.6005859375,218.9483642578125 L76.24453735351562,126.44563293457031 L167.9327392578125,85.27886962890625 L259.6212158203125,126.44563293457031 L282.26556396484375,218.9483642578125 L218.81378173828125,293.1304931640625 L117.05197143554688,293.1304931640625 L53.6005859375,218.9483642578125 L53.6005859375,218.9483642578125 z" class=""/><path fill="#f7a85d" stroke="#e27012" style="color: rgb(226, 112, 18);" stroke-width="2" stroke-linejoin="round" stroke-dashoffset="" fill-rule="nonzero" opacity="0.78" marker-start="" marker-mid="" marker-end="" id="svg_10" d="M125.15672814846039,255.585255920887 L143.1950582265854,175.8856251835823 L216.22026574611664,140.41739398241043 L289.2495015859604,175.8856251835823 L307.289449095726,255.585255920887 L256.7527974843979,319.5030110478401 L175.6907857656479,319.5030110478401 L125.15672814846039,255.585255920887 L125.15672814846039,255.585255920887 z" class="" transform="rotate(121.639, 216.222, 229.961)"/><path fill="#f7a85d" stroke="#e27012" style="color: rgb(226, 112, 18);" stroke-width="2" stroke-linejoin="round" stroke-dashoffset="" fill-rule="nonzero" opacity="0.68" marker-start="" marker-mid="" marker-end="" d="M102.03488159179688,211.56085205078125 L121.48284912109375,126.73759460449219 L200.21450805664062,88.98928833007812 L278.9504699707031,126.73759460449219 L298.4001770019531,211.56085205078125 L243.91439819335938,279.5876159667969 L156.51788330078125,279.5876159667969 L102.03488159179688,211.56085205078125 L102.03488159179688,211.56085205078125 z" class="" transform="rotate(-177.002, 200.218, 184.29)" id="svg_14"/></g></svg>
