<svg xmlns="http://www.w3.org/2000/svg" xmlns:se="http://svg-edit.googlecode.com" xmlns:xlink="http://www.w3.org/1999/xlink" xmlns:dc="http://purl.org/dc/elements/1.1/" xmlns:cc="http://creativecommons.org/ns#" xmlns:rdf="http://www.w3.org/1999/02/22-rdf-syntax-ns#" xmlns:inkscape="http://www.inkscape.org/namespaces/inkscape" width="457" height="458">                                    <title>my vector image</title>                                    <!-- Created with Vector Paint - http://www.vectorpaint.yaks.com/ https://chrome.google.com/webstore/detail/hnbpdiengicdefcjecjbnjnoifekhgdo -->                                    <rect id="backgroundrect" width="100%" height="100%" x="0" y="0" fill="#FFFFFF" stroke="none" fill-opacity="0"/>                                <g class="currentLayer" style=""><title>Layer 1</title><path fill="#ebeb1a" fill-opacity="1" stroke="#ebeb1a" stroke-opacity="1" stroke-width="2" stroke-dasharray="none" stroke-linejoin="round" stroke-linecap="butt" stroke-dashoffset="" fill-rule="nonzero" opacity="1" marker-start="" marker-mid="" marker-end="" d="M1.000946044921875,229.1344451904297 C1.000946044921875,103.09246063232422 102.89845275878906,0.9984440803527832 228.69781494140625,0.9984440803527832 C354.4971618652344,0.9984440803527832 456.3946533203125,103.09246063232422 456.3946533203125,229.1344451904297 C456.3946533203125,355.1764831542969 354.4971618652344,457.2704772949219 228.69781494140625,457.2704772949219 C102.89845275878906,457.2704772949219 1.000946044921875,355.1764831542969 1.000946044921875,229.1344451904297 z" id="svg_5" class=""/><path fill="#eb1a1a" fill-opacity="1" stroke="#ebeb1a" stroke-opacity="1" stroke-width="2" stroke-dasharray="none" stroke-linejoin="round" stroke-linecap="butt" stroke-dashoffset="" fill-rule="nonzero" opacity="0.43" marker-start="" marker-mid="" marker-end="" d="M68.24366760253906,198.69461059570312 C68.24366760253906,128.7632598876953 125.57968139648438,72.11886596679688 196.3648681640625,72.11886596679688 C267.15008544921875,72.11886596679688 324.486083984375,128.7632598876953 324.486083984375,198.69461059570312 C324.486083984375,268.6260070800781 267.15008544921875,325.2703857421875 196.3648681640625,325.2703857421875 C125.57968139648438,325.2703857421875 68.24366760253906,268.6260070800781 68.24366760253906,198.69461059570312 z" id="svg_10" class=""/><path fill="#eb1a1a" fill-opacity="1" stroke="#ebeb1a" stroke-opacity="1" stroke-width="2" stroke-dasharray="none" stroke-linejoin="round" stroke-linecap="butt" stroke-dashoffset="" fill-rule="nonzero" opacity="0.43" marker-start="" marker-mid="" marker-end="" d="M148.8497314453125,229.30067443847656 C148.8497314453125,159.36932373046875 206.18572998046875,102.72492980957031 276.9709167480469,102.72492980957031 C347.7561340332031,102.72492980957031 405.0921630859375,159.36932373046875 405.0921630859375,229.30067443847656 C405.0921630859375,299.2320556640625 347.7561340332031,355.8764343261719 276.9709167480469,355.8764343261719 C206.18572998046875,355.8764343261719 148.8497314453125,299.2320556640625 148.8497314453125,229.30067443847656 z" class="" id="svg_13"/><path fill="#eb1a1a" fill-opacity="1" stroke="#ebeb1a" stroke-opacity="1" stroke-width="2" stroke-dasharray="none" stroke-linejoin="round" stroke-linecap="butt" stroke-dashoffset="" fill-rule="nonzero" opacity="0.43" marker-start="" marker-mid="" marker-end="" d="M75.67120361328125,268.2433776855469 C75.67120361328125,198.31202697753906 133.00723266601562,141.66763305664062 203.79241943359375,141.66763305664062 C274.57763671875,141.66763305664062 331.91363525390625,198.31202697753906 331.91363525390625,268.2433776855469 C331.91363525390625,338.1747741699219 274.57763671875,394.81915283203125 203.79241943359375,394.81915283203125 C133.00723266601562,394.81915283203125 75.67120361328125,338.1747741699219 75.67120361328125,268.2433776855469 z" class="" id="svg_14"/></g><defs><filter id="f106" inkscape:label="Feather" inkscape:menu="ABCs" inkscape:menu-tooltip="Blurred mask on the edge without altering the contents" color-interpolation-filters="sRGB">
            <feGaussianBlur result="result6" stdDeviation="5"/>
            <feComposite in2="result6" operator="atop" in="SourceGraphic" result="result91"/>
            <feComposite operator="in" in2="result91" result="result92"/>
            <feComposite operator="in" in2="result92"/>
        </filter></defs></svg>
