<svg width="130" height="230" xmlns="http://www.w3.org/2000/svg" xmlns:svg="http://www.w3.org/2000/svg">
 <style type="text/css">.st0{fill:none;}
    .st1{fill:#FFE845;}
    .st2{fill:#FFFFFF;}
    .st3{fill:#FF6333;}</style>

 <g>
  <title>Layer 1</title>
  <path id="XMLID_53_" class="st0" d="m56.2,140.8c0,-0.10001 0,-0.3 0,-0.39999l0,0l0,0.39999z"/>
  <path id="XMLID_55_" class="st0" d="m74.2,140.8l0,-0.39999l0,0c0,0.2 0,0.29999 0,0.39999z"/>
  <path id="XMLID_57_" class="st0" d="m37.7,148.5c0,0.3 0.1,0.7 0.1,1l-0.1,-1l0,0z"/>
  <path id="XMLID_58_" class="st0" d="m19.6,148.5l0,1c0,-0.39999 0.1,-0.7 0,-1l0,0z"/>
  <path id="XMLID_59_" class="st0" d="m92.7,159.39999l0,0l-0.1,0.7c0.1,-0.29999 0.1,-0.49998 0.1,-0.7z"/>
  <rect id="XMLID_63_" x="1" y="132" class="st1" width="19" height="1"/>
  <polygon id="XMLID_65_" class="st1" points="56,133 56,131 38,131 38,132.4 38,133 "/>
  <rect id="XMLID_67_" x="74" y="132" class="st1" width="19" height="1"/>
  <path id="XMLID_74_" class="st1" d="m20,148l-0.3,0c0.5,-4 4.3,-8.10001 9,-8.10001s8.5,4.10001 9,8.10001l0.3,0l0,-15l-18,0l0,15z"/>
  <rect id="XMLID_75_" x="20" y="132" class="st1" width="18" height="1"/>
  <g id="svg_1">
   <path class="st1" d="m65.2,1.4c-35.2,0 -63.8,28.4 -64,63.6l-0.2,0l0,67l18.6,0l18.4,0l0,-1l18.2,0l17.8,0l0,1l18.70001,0l0.29999,0l0,1l-19,0l0,7.39999l0,0.40001c0,0.2 0,0.39999 0,0.59999s0,0.40001 0,0.60001l0,41.5c0,5.10001 4.4,9.2 9.5,9.2c5.1,0 9.5,-4.09999 9.5,-9.2l0,-22.60001c0,-0.09999 0,-0.29999 0,-0.39999s0,-0.3 0,-0.39999l0,-0.70001l0,-0.39999l0,-1.2c1.1,-3.5 4.6,-6.7 8.7,-6.7c4.60001,0 8.4,3.89999 9,7.89999l0.3,0l0,0.39999l0,47.3c0,5.10001 3.9,9.2 9,9.2c5.1,0 9,-4.09999 9,-9.2l0,-73.7l0,-2l0,-60.4c0.10001,-1.7 0.2,-3.5 0.2,-5.2c0,-35.4 -28.6,-64 -64,-64z" id="svg_2"/>
   <path class="st1" d="m1,195.10001c0,5.10001 4.1,8.89999 9.2,8.89999l0.2,0c5.1,0 9.6,-3.79999 9.6,-8.89999l0,-45.59999l0,-1l0,-15.50002l-19,0l0,62.10001z" id="svg_3"/>
   <path class="st1" d="m38,148.5l0,1l0,69.90001c0,5.09999 3.9,9.2 9.5,9.2c5.6,0 9.5,-4.10001 9.5,-9.2l0,-77.40001c0,-0.2 0,-0.39999 0,-0.60001c0,-0.2 0,-0.39999 0,-0.59999l0,-0.40001l0,-7.39999l-19,0l0,15.5z" id="svg_4"/>
  </g>
  <path id="XMLID_79_" class="st1" d="m61.2,133l-5.2,0l0,7l0.2,0c0.4,-3 2.3,-5 5,-7z"/>
  <path id="XMLID_80_" class="st1" d="m74.2,140l-0.2,0l0,-7l-4.8,0c2.7,2 4.60001,4 5,7z"/>
  <path id="XMLID_81_" class="st1" d="m61.2,133c1.2,0 2.6,-1 4,-1s2.8,1 4,1l4.8,0l0,-0.60001l0,-1.39999l-18,0l0,2l5.2,0z"/>
  <path id="XMLID_85_" class="st2" d="m92.6,160.5c0,0.10001 0,0.3 0,0.39999l0,-0.89999c0.1,0.2 0,0.3 0,0.5z"/>
  <path id="XMLID_88_" class="st2" d="m56.2,141.39999c0,0.2 0,0.39999 0,0.60001l0,-1.20001c0,0.20001 0,0.40001 0,0.60001z"/>
  <path id="XMLID_89_" class="st2" d="m74.2,140.8l0,1.2c0,-0.2 0,-0.39999 0,-0.59999s0,-0.40001 0,-0.60001z"/>
  <circle id="XMLID_2_" class="st3" cx="65.2" cy="65.4" r="49.1"/>
 </g>
</svg>
