<?xml version="1.0" encoding="utf-8"?>
<!-- Generator: Adobe Illustrator 19.0.0, SVG Export Plug-In . SVG Version: 6.00 Build 0)  -->
<svg version="1.1" xmlns="http://www.w3.org/2000/svg" xmlns:xlink="http://www.w3.org/1999/xlink" x="0px" y="0px"
	 viewBox="0 0 235 235" style="enable-background:new 0 0 235 235;" xml:space="preserve">
<style type="text/css">
	.st0{fill:#FFB864;stroke:#FF7300;stroke-width:4;stroke-miterlimit:10;}
	.st1{fill:#9FD8FF;}
	.st2{fill:#488EFF;}
	.st3{fill:#CAECFF;}
	.st4{fill:#E59A4A;stroke:#FF7300;stroke-width:4;stroke-miterlimit:10;}
	.st5{fill:#D1843F;stroke:#FF7300;stroke-width:4;stroke-miterlimit:10;}
	.st6{fill:#84776D;stroke:#FF7300;stroke-width:4;stroke-miterlimit:10;}
	.st7{fill:#E59A4A;}
	.st8{fill:#ADF240;}
	.st9{fill:#FFFFFF;}
	.st10{fill:#3A3A3A;}
	.st11{opacity:0.68;fill:#FFFFFF;}
	.st12{fill:#8FD111;}
	.st13{opacity:0.3;fill:#9FD8FF;}
</style>
<g id="Calque_1">
	<g id="XMLID_1_">
		<path id="XMLID_24_" class="st0" d="M231.7,117c0,5.3-2.6,10-6.9,13.4c-4.3,3.5-10.1,5.5-16.6,5.5H26.8c-13,0-23.5-8.5-23.5-19.1
			c0-5.3,2.6-10,6.9-13.4c4.3-3.5,10.1-5.5,16.6-5.5h181.3C221.1,98,231.7,106.5,231.7,117z"/>
		<g id="XMLID_19_">
			<path id="XMLID_28_" class="st1" d="M35,94v-2.3C35,44,71.8,5.2,117.5,5.2S200,44,200,91.7V94H35z"/>
			<path id="XMLID_25_" class="st2" d="M117.5,7.5c44.7,0,80.9,37.5,80.9,84.5H36.6C36.6,45,72.8,7.5,117.5,7.5 M117.5,3.2
				C70.7,3.2,33,42.9,33,91.7V96h3.6h161.7h3.6v-4.3C202,42.9,164.3,3.2,117.5,3.2L117.5,3.2z"/>
		</g>
		<path id="XMLID_32_" class="st3" d="M190.5,55.6c-3.4,0.4-6.9,0.6-10.5,0.6c-35.9,0-65-21.4-65-47.9v0c1,0,1.7,0,2.5,0
			C149.7,8.2,177.5,27.6,190.5,55.6z"/>
		<polygon id="XMLID_6_" class="st4" points="178.8,162.3 56.2,162.3 36.6,136.3 198.4,136.3 		"/>
		<polygon id="XMLID_39_" class="st5" points="159,186.2 76,186.2 62.8,164.9 172.2,164.9 		"/>
		<polygon id="XMLID_41_" class="st6" points="141.3,201.5 93.7,201.5 86.1,187.2 148.9,187.2 		"/>
		<g id="XMLID_7_">
			<polygon id="XMLID_42_" class="st0" points="50.2,157 31.5,175 17.3,188.7 11.7,181.9 27,167.3 44.7,150.2 			"/>
			<polygon id="XMLID_10_" class="st0" points="40.6,219.7 32.9,219.7 13.5,192.7 18.2,188.7 			"/>
			<ellipse id="XMLID_9_" class="st0" cx="13.1" cy="185.9" rx="5.4" ry="5.8"/>
			<polygon id="XMLID_13_" class="st0" points="46.2,227.5 28.3,227.5 25.4,219.7 49.1,219.7 			"/>
			<polygon id="XMLID_40_" class="st7" points="48.2,156 27.6,175.8 28,169 44.5,152.8 			"/>
		</g>
		<g id="XMLID_14_">
			<polygon id="XMLID_38_" class="st0" points="184.1,157 202.9,175 217.1,188.7 222.6,181.9 207.4,167.3 189.7,150.2 			"/>
			<polygon id="XMLID_33_" class="st0" points="193.8,219.7 201.4,219.7 220.9,192.7 216.2,188.7 			"/>
			<ellipse id="XMLID_23_" class="st0" cx="221.2" cy="185.9" rx="5.4" ry="5.8"/>
			<polygon id="XMLID_21_" class="st0" points="188.2,227.5 206.1,227.5 209,219.7 185.2,219.7 			"/>
			<polygon id="XMLID_17_" class="st7" points="186.1,156 206.8,175.8 206.4,169 189.9,152.8 			"/>
		</g>
		<path id="XMLID_43_" class="st7" d="M21.9,100.6c-0.4,0-16.9,2-16.9,16.2s15.8,16.8,19.4,17.2c9.2,0.7,36.8,0,36.8,0H69
			c0,0-57.3-0.2-57.3-17.1S21.9,100.6,21.9,100.6z"/>
	</g>
	<g>
		<path class="st8" d="M154.6,92h-76V55.7c0-21.3,17.3-38.6,38.6-38.6h0c20.6,0,37.4,16.7,37.4,37.4V92z"/>
		<circle class="st9" cx="116.6" cy="51.5" r="24.7"/>
		<circle class="st10" cx="111.2" cy="40.6" r="7.5"/>
		<path class="st9" d="M111.8,36.3c0,0,3.5,1.6,3.2,4.3C116.7,38.3,114.9,34.6,111.8,36.3z"/>
		<path class="st11" d="M106.7,42.7c0,0,1.1,1.8,2.7,2.4C107.2,45.2,106.7,42.7,106.7,42.7z"/>
		<g>
			<path class="st12" d="M101.1,75.9c0,0,0.6,0.2,1.6,0.5c1,0.3,2.4,0.7,4.2,1.1c1.7,0.4,3.8,0.8,6,1.1c1.1,0.2,2.3,0.2,3.4,0.3
				c1.2,0.1,2.4,0.1,3.5,0.1c1.2,0,2.4-0.1,3.5-0.2c1.2-0.2,2.3-0.3,3.4-0.6c0.5-0.1,1.1-0.2,1.6-0.4c0.5-0.1,1-0.3,1.5-0.5
				c0.5-0.2,1-0.3,1.4-0.5c0.4-0.2,0.9-0.3,1.3-0.6c0.8-0.4,1.5-0.8,2.2-1.1c0.6-0.4,1.2-0.7,1.6-1c0.9-0.6,1.3-1,1.3-1
				s-0.4,0.4-1.2,1.1c-0.4,0.3-0.9,0.7-1.5,1.2c-0.6,0.4-1.3,0.9-2.1,1.3c-0.4,0.2-0.8,0.4-1.3,0.6c-0.4,0.2-0.9,0.4-1.4,0.6
				c-1,0.4-2,0.7-3.1,1c-1.1,0.3-2.3,0.5-3.5,0.7c-1.2,0.1-2.4,0.2-3.6,0.3c-2.4,0-4.9-0.2-7.1-0.5c-2.2-0.4-4.3-0.9-6-1.4
				c-1.7-0.5-3.1-1.1-4.1-1.5C101.7,76.2,101.1,75.9,101.1,75.9z"/>
		</g>
		<g>
			<path class="st12" d="M108.5,80.3c0,0,0.4,0.1,1.1,0.2c0.7,0.1,1.8,0.3,3,0.5c1.2,0.2,2.7,0.3,4.2,0.4c1.6,0.1,3.2,0.2,4.9,0.1
				c0.8,0,1.7-0.1,2.5-0.1c0.8-0.1,1.6-0.2,2.4-0.3c0.8-0.2,1.5-0.2,2.2-0.4c0.7-0.2,1.3-0.3,1.9-0.5c0.6-0.2,1.1-0.4,1.6-0.6
				c0.5-0.2,0.9-0.4,1.2-0.5c0.7-0.3,1.1-0.5,1.1-0.5s-0.3,0.2-1,0.6c-0.3,0.2-0.7,0.5-1.1,0.7c-0.5,0.2-1,0.5-1.6,0.8
				c-0.6,0.2-1.2,0.5-1.9,0.7c-0.7,0.2-1.5,0.4-2.2,0.6c-0.8,0.2-1.6,0.3-2.4,0.4c-0.8,0.1-1.7,0.2-2.5,0.2c-1.7,0-3.4,0-5-0.2
				c-0.8-0.1-1.5-0.2-2.3-0.3c-0.7-0.1-1.4-0.3-2-0.4c-1.2-0.3-2.2-0.6-2.9-0.8C108.9,80.5,108.5,80.3,108.5,80.3z"/>
		</g>
	</g>
</g>
<g id="Calque_2">
	<path id="XMLID_2_" class="st13" d="M36.6,93v-2.2c0-46.6,36-84.6,80.8-84.6s80.8,37.9,80.8,84.6V93H36.6z"/>
</g>
</svg>
