<svg width="235" height="235" xmlns="http://www.w3.org/2000/svg" xmlns:svg="http://www.w3.org/2000/svg">
 <style type="text/css">.st0{fill:#FFB864;stroke:#FF7300;stroke-width:4;stroke-miterlimit:10;}
    .st1{fill:#9FD8FF;}
    .st2{fill:#488EFF;}
    .st3{fill:#CAECFF;}
    .st4{fill:#E59A4A;stroke:#FF7300;stroke-width:4;stroke-miterlimit:10;}
    .st5{fill:#D1843F;stroke:#FF7300;stroke-width:4;stroke-miterlimit:10;}
    .st6{fill:#84776D;stroke:#FF7300;stroke-width:4;stroke-miterlimit:10;}
    .st7{fill:#E59A4A;}
    .st8{fill:#ADF240;}
    .st9{fill:#8FD111;}
    .st10{fill:#FFFFFF;}
    .st11{fill:#3A3A3A;}
    .st12{opacity:0.68;fill:#FFFFFF;enable-background:new    ;}
    .st13{opacity:0.3;fill:#9FD8FF;enable-background:new    ;}
    .st14{fill:none;stroke:#488EFF;stroke-miterlimit:10;}</style>

 <g>
  <title>Layer 1</title>
  <g id="XMLID_1_">
   <path d="m231.39999,115c-4.2,5.3 -7.7,8.3 -12,11.7c-3.90001,-4 -10.3,-6.5 -11.5,7.2l-181.39999,0c-13,0 -23.5,-8.49999 -23.5,-19.09999c0,-5.3 2.6,-10 6.9,-13.4c4.3,-3.5 10.1,-5.5 16.6,-5.5l181.3,0c5.09999,0 3,9.7 6.89999,11.9c6,3.5 20.60001,2.2 16.7,7.2z" class="st0" id="XMLID_24_"/>
   <g id="XMLID_19_">
    <path d="m34.7,92l0,-2.3c0,-47.7 36.8,-86.5 82.5,-86.5s82.5,38.8 82.5,86.5l0,2.3l-165,0z" class="st1" id="XMLID_28_"/>
    <path d="m117.2,5.5c44.7,0 80.90001,37.5 80.90001,84.5l-161.80001,0c0,-47 36.2,-84.5 80.9,-84.5m0,-4.3c-46.8,0 -84.5,39.7 -84.5,88.5l0,4.3l3.6,0l161.7,0l3.60001,0l0,-4.3c0.09999,-48.8 -37.60001,-88.5 -84.40001,-88.5l0,0z" class="st2" id="XMLID_25_"/>
   </g>
   <path d="m190.2,53.6c-3.39999,0.4 -6.89999,0.6 -10.5,0.6c-35.89999,0 -65,-21.4 -65,-47.9l0,0c1,0 1.7,0 2.5,0c32.2,-0.1 60,19.3 73,47.3z" class="st3" id="XMLID_32_"/>
   <polygon points="178.5,160.3 55.9,160.3 36.3,134.3 198.1,134.3  " class="st4" id="XMLID_6_"/>
   <polygon points="158.7,184.2 75.7,184.2 62.5,162.9 171.9,162.9  " class="st5" id="XMLID_39_"/>
   <polygon points="141,199.5 93.4,199.5 85.8,185.2 148.6,185.2  " class="st6" id="XMLID_41_"/>
   <g id="XMLID_7_">
    <polygon points="49.9,155 31.2,173 17,186.7 11.4,179.9 26.7,165.3 44.4,148.2   " class="st0" id="XMLID_42_"/>
    <polygon points="40.3,217.7 32.6,217.7 13.2,190.7 17.9,186.7   " class="st0" id="XMLID_10_"/>
    <ellipse ry="5.8" rx="5.4" cy="183.9" cx="12.8" class="st0" id="XMLID_9_"/>
    <polygon points="45.9,225.5 28,225.5 25.1,217.7 48.8,217.7   " class="st0" id="XMLID_13_"/>
    <polygon points="47.9,154 27.3,173.8 27.7,167 44.2,150.8   " class="st7" id="XMLID_40_"/>
   </g>
   <polygon points="183.8,155 202.6,173 216.8,186.7 222.3,179.9 207.1,165.3 189.4,148.2  " class="st0" id="XMLID_38_"/>
   <polygon points="218.4,224.9 224.4,220.3 223.5,187 217.3,186.7  " class="st0" id="XMLID_33_"/>
   <ellipse ry="5.8" rx="5.4" cy="183.9" cx="220.9" class="st0" id="XMLID_23_"/>
   <polygon points="206.7,218.5 220.4,230 227.7,225.9 209.4,210.6  " class="st0" id="XMLID_21_"/>
   <polygon points="185.8,154 206.5,173.8 206.1,167 189.6,150.8  " class="st7" id="XMLID_17_"/>
   <path d="m21.6,98.6c-0.4,0 -16.9,2 -16.9,16.2s15.8,16.8 19.4,17.2c9.2,0.7 36.8,0 36.8,0l7.8,0c0,0 -57.3,-0.2 -57.3,-17.1s10.2,-16.3 10.2,-16.3z" class="st7" id="XMLID_43_"/>
   <path d="m154.3,90l-76,0l0,-36.3c0,-21.3 17.3,-38.6 38.6,-38.6l0,0c20.6,0 37.4,16.7 37.4,37.4l0,37.5z" class="st8" id="XMLID_31_"/>
   <circle r="26.1" cy="49.5" cx="116.3" class="st9" id="XMLID_30_"/>
   <circle r="24.7" cy="49.5" cx="116.3" class="st10" id="XMLID_29_"/>
   <circle r="7.5" cy="38.6" cx="110.9" class="st11" id="XMLID_27_"/>
   <path d="m111.5,34.3c0,0 3.5,1.6 3.2,4.3c1.7,-2.3 -0.1,-6 -3.2,-4.3z" class="st10" id="XMLID_26_"/>
   <path d="m106.4,40.7c0,0 1.1,1.8 2.7,2.4c-2.2,0.1 -2.7,-2.4 -2.7,-2.4z" class="st12" id="XMLID_22_"/>
   <g id="svg_1">
    <path d="m100.8,73.9c0,0 0.6,0.2 1.6,0.5s2.4,0.7 4.2,1.1c1.7,0.4 3.8,0.8 6,1.1c1.1,0.2 2.3,0.2 3.4,0.3c1.2,0.1 2.4,0.1 3.5,0.1c1.2,0 2.4,-0.1 3.5,-0.2c1.2,-0.2 2.3,-0.3 3.4,-0.60001c0.5,-0.1 1.1,-0.2 1.6,-0.39999c0.5,-0.10001 1,-0.3 1.5,-0.5s1,-0.3 1.39999,-0.5s0.90001,-0.3 1.3,-0.60001c0.8,-0.39999 1.5,-0.8 2.2,-1.1c0.60001,-0.4 1.20001,-0.7 1.60001,-1c0.89999,-0.6 1.3,-1 1.3,-1s-0.40001,0.4 -1.2,1.1c-0.40001,0.3 -0.90001,0.7 -1.5,1.2c-0.60001,0.4 -1.3,0.9 -2.10001,1.3c-0.39999,0.2 -0.8,0.4 -1.3,0.60001c-0.39999,0.2 -0.89999,0.39999 -1.39999,0.6c-1,0.4 -2,0.7 -3.10001,1s-2.3,0.5 -3.5,0.7c-1.2,0.1 -2.39999,0.2 -3.6,0.3c-2.4,0 -4.9,-0.2 -7.1,-0.5c-2.2,-0.4 -4.3,-0.9 -6,-1.4s-3.1,-1.1 -4.1,-1.5c-1,-0.3 -1.6,-0.6 -1.6,-0.6z" class="st9" id="XMLID_20_"/>
   </g>
   <g id="svg_2">
    <path d="m108.2,78.3c0,0 0.4,0.1 1.10001,0.2s1.8,0.3 3,0.5s2.7,0.3 4.2,0.4c1.6,0.1 3.2,0.2 4.9,0.1c0.8,0 1.7,-0.1 2.5,-0.1c0.8,-0.1 1.6,-0.2 2.4,-0.3c0.8,-0.2 1.5,-0.2 2.2,-0.4c0.7,-0.2 1.3,-0.3 1.89999,-0.5c0.60001,-0.2 1.10001,-0.39999 1.60001,-0.6s0.89999,-0.4 1.2,-0.5c0.7,-0.3 1.10001,-0.5 1.10001,-0.5s-0.3,0.2 -1,0.6c-0.3,0.2 -0.7,0.5 -1.10001,0.7c-0.5,0.2 -1,0.5 -1.59999,0.8c-0.60001,0.2 -1.20001,0.5 -1.90001,0.7s-1.5,0.4 -2.2,0.6c-0.8,0.2 -1.6,0.3 -2.4,0.4s-1.7,0.2 -2.5,0.2c-1.7,0 -3.4,0 -5,-0.2c-0.8,-0.1 -1.5,-0.2 -2.3,-0.3c-0.7,-0.1 -1.4,-0.3 -2,-0.4c-1.2,-0.3 -2.2,-0.6 -2.9,-0.8c-0.8,-0.4 -1.2,-0.6 -1.2,-0.6z" class="st9" id="XMLID_18_"/>
   </g>
   <g id="svg_3">
    <path d="m104.8,22.2c0,0 -0.4,0.2 -0.9,0.6s-1.5,1.1 -2.5,1.8c-1,0.7 -2.1,1.7 -3.3,2.7c-1.2,1.1 -2.4,2.1 -3.5,3.4c-0.6,0.6 -1.1,1.3 -1.7,1.8c-0.5,0.6 -1,1.3 -1.5,1.9c-0.4,0.7 -0.9,1.2 -1.3,1.8c-0.4,0.6 -0.7,1.1 -1,1.7c-0.3,0.6 -0.5,1.1 -0.7,1.6c-0.2,0.5 -0.4,0.9 -0.5,1.2c-0.3,0.7 -0.4,1.1 -0.4,1.1s0.1,-0.4 0.3,-1.1c0.1,-0.4 0.1,-0.8 0.3,-1.3c0.2,-0.5 0.4,-1.1 0.6,-1.7c0.3,-0.6 0.5,-1.2 0.8,-1.8s0.8,-1.3 1.1,-2c0.4,-0.7 0.9,-1.3 1.4,-2c0.5,-0.6 1.1,-1.3 1.6,-1.9c1.2,-1.2 2.4,-2.4 3.7,-3.4c0.6,-0.5 1.2,-0.9 1.8,-1.4c0.6,-0.4 1.2,-0.8 1.7,-1.1c1.1,-0.6 2,-1.1 2.6,-1.5c0.9,-0.2 1.4,-0.4 1.4,-0.4z" class="st9" id="XMLID_16_"/>
   </g>
   <g id="svg_4">
    <path d="m99.4,29.1c0,0 -0.1,0.1 -0.3,0.2c-0.2,0.2 -0.6,0.4 -0.9,0.7c-0.39999,0.3 -0.8,0.6 -1.2,1c-0.4,0.4 -0.9,0.8 -1.3,1.3c-0.2,0.2 -0.39999,0.5 -0.6,0.7c-0.2,0.2 -0.4,0.5 -0.6,0.7c-0.2,0.3 -0.3,0.4 -0.5,0.7c-0.1,0.2 -0.3,0.4 -0.4,0.6c-0.1,0.2 -0.2,0.4 -0.3,0.6c-0.10001,0.2 -0.10001,0.3 -0.2,0.4c-0.1,0.3 -0.2,0.4 -0.2,0.4s0,-0.1 0.1,-0.4c0,-0.1 0.1,-0.3 0.1,-0.5c0.1,-0.2 0.1,-0.4 0.2,-0.6c0.1,-0.2 0.2,-0.4 0.3,-0.7c0.1,-0.2 0.3,-0.5 0.4,-0.7c0.2,-0.3 0.3,-0.5 0.5,-0.7c0.2,-0.2 0.4,-0.5 0.6,-0.7c0.4,-0.4 0.9,-0.9 1.4,-1.3c0.2,-0.2 0.4,-0.3 0.7,-0.5c0.2,-0.2 0.4,-0.3 0.60001,-0.4c0.39999,-0.2 0.7,-0.4 1,-0.6c0.5,-0.1 0.6,-0.2 0.6,-0.2z" class="st9" id="XMLID_15_"/>
   </g>
   <g id="Calque_2">
    <path d="m36.3,91.1l0,-2.2c0,-46.6 36,-84.6 80.8,-84.6s80.80001,37.9 80.80001,84.6l0,2.2l-161.60001,0z" class="st13" id="XMLID_2_"/>
   </g>
   <polyline points="52.1,38.6 61.2,39.3 58.7,45.2 56.6,52.6 63.8,52.6 65.8,57.2 72.3,59  " class="st14" id="XMLID_14_"/>
   <polyline points="56.6,52.6 53.8,58.2 56.6,63 63.7,65.2 57,69  " class="st14" id="XMLID_12_"/>
   <polyline points="59.6,43.1 66.3,41.9 68.7,44 72.3,42.9 73.8,35.3 78.3,34.5  " class="st14" id="XMLID_11_"/>
   <polyline points="162.2,19.5 161.2,23.4 163.3,24.8 163.3,28.3 158.5,31.1 159.7,38.6 164.8,41.9  " class="st14" id="XMLID_8_"/>
   <polyline points="160.9,29.7 154.3,24.8 149.7,27.5 150.7,30.2  " class="st14" id="XMLID_5_"/>
   <polyline points="124.7,112.9 142.4,110.3 145.3,116.9 163,110.3 169.3,125.8 185.8,119.7 190.2,109    199.7,112.9  " class="st0" id="XMLID_4_"/>
   <path d="m50.3,136.39999c0,0 0.4,2.8 1.6,4.3c1.2,1.39999 3.8,2.2 4,3.89999s-1.7,3.10001 -1.1,4.3s1.2,2.3 2.1,2.3c0.9,0.09999 2.9,-1.10001 2.5,-2.10001c-0.4,-1 -0.9,-1.7 -1.5,-2.3c-0.6,-0.7 -1.3,-2.39999 -0.3,-3c1,-0.59999 1.3,-1.7 3.1,-3c1.8,-1.3 4.7,-2.89999 5.5,-1.59999s4.2,2.7 5.7,1.79999c1.5,-0.79999 1.8,-3.59999 5.3,-3.2c3.5,0.40001 6.8,-0.3 7.8,-0.89999c0.9,-0.7 2.7,-0.60001 2.7,-0.60001l-37.4,0l0,0.10001z" class="st8" id="XMLID_3_"/>
  </g>
 </g>
</svg>
