<?xml version="1.0" encoding="utf-8"?>
<!-- Generator: Adobe Illustrator 19.0.0, SVG Export Plug-In . SVG Version: 6.00 Build 0)  -->
<svg version="1.1" id="Layer_1" xmlns="http://www.w3.org/2000/svg" xmlns:xlink="http://www.w3.org/1999/xlink" x="0px" y="0px"
	 viewBox="0 0 235 235" style="enable-background:new 0 0 235 235;" xml:space="preserve">
<style type="text/css">
	.st0{fill:#FFB864;stroke:#FF7300;stroke-width:4;stroke-miterlimit:10;}
	.st1{fill:#9FD8FF;}
	.st2{fill:#488EFF;}
	.st3{fill:#CAECFF;}
	.st4{fill:#E59A4A;stroke:#FF7300;stroke-width:4;stroke-miterlimit:10;}
	.st5{fill:#D1843F;stroke:#FF7300;stroke-width:4;stroke-miterlimit:10;}
	.st6{fill:#84776D;stroke:#FF7300;stroke-width:4;stroke-miterlimit:10;}
	.st7{fill:#E59A4A;}
	.st8{fill:#ADF240;}
	.st9{fill:#FFFFFF;}
	.st10{fill:#3A3A3A;}
	.st11{opacity:0.68;fill:#FFFFFF;enable-background:new    ;}
	.st12{fill:#8FD111;}
	.st13{opacity:0.3;fill:#9FD8FF;enable-background:new    ;}
</style>
<g id="XMLID_1_">
	<g id="Calque_1_1_">
		<g id="XMLID_4_">
			<path id="XMLID_46_" class="st0" d="M231.7,118c0,5.3-2.6,10-6.9,13.4c-4.3,3.5-10.1,5.5-16.6,5.5H26.8c-13,0-23.5-8.5-23.5-19.1
				c0-5.3,2.6-10,6.9-13.4c4.3-3.5,10.1-5.5,16.6-5.5h181.3C221.1,99,231.7,107.5,231.7,118z"/>
			<g id="XMLID_37_">
				<path id="XMLID_45_" class="st1" d="M35,95v-2.3C35,45,71.8,6.2,117.5,6.2S200,45,200,92.7V95H35z"/>
				<path id="XMLID_44_" class="st2" d="M117.5,8.5c44.7,0,80.9,37.5,80.9,84.5H36.6C36.6,46,72.8,8.5,117.5,8.5 M117.5,4.2
					C70.7,4.2,33,43.9,33,92.7V97h3.6h161.7h3.6v-4.3C202,43.9,164.3,4.2,117.5,4.2L117.5,4.2z"/>
			</g>
			<path id="XMLID_36_" class="st3" d="M190.5,56.6c-3.4,0.4-6.9,0.6-10.5,0.6c-35.9,0-65-21.4-65-47.9l0,0c1,0,1.7,0,2.5,0
				C149.7,9.2,177.5,28.6,190.5,56.6z"/>
			<polygon id="XMLID_35_" class="st4" points="178.8,163.3 56.2,163.3 36.6,137.3 198.4,137.3 			"/>
			<polygon id="XMLID_34_" class="st5" points="159,187.2 76,187.2 62.8,165.9 172.2,165.9 			"/>
			<polygon id="XMLID_31_" class="st6" points="141.3,202.5 93.7,202.5 86.1,188.2 148.9,188.2 			"/>
			<g id="XMLID_20_">
				<polygon id="XMLID_30_" class="st0" points="50.2,158 31.5,176 17.3,189.7 11.7,182.9 27,168.3 44.7,151.2 				"/>
				<polygon id="XMLID_29_" class="st0" points="40.6,220.7 32.9,220.7 13.5,193.7 18.2,189.7 				"/>
				<ellipse id="XMLID_27_" class="st0" cx="13.1" cy="186.9" rx="5.4" ry="5.8"/>
				<polygon id="XMLID_26_" class="st0" points="46.2,228.5 28.3,228.5 25.4,220.7 49.1,220.7 				"/>
				<polygon id="XMLID_22_" class="st7" points="48.2,157 27.6,176.8 28,170 44.5,153.8 				"/>
			</g>
			<g id="XMLID_8_">
				<polygon id="XMLID_18_" class="st0" points="184.1,158 202.9,176 217.1,189.7 222.6,182.9 207.4,168.3 189.7,151.2 				"/>
				<polygon id="XMLID_16_" class="st0" points="193.8,220.7 201.4,220.7 220.9,193.7 216.2,189.7 				"/>
				<ellipse id="XMLID_15_" class="st0" cx="221.2" cy="186.9" rx="5.4" ry="5.8"/>
				<polygon id="XMLID_12_" class="st0" points="188.2,228.5 206.1,228.5 209,220.7 185.2,220.7 				"/>
				<polygon id="XMLID_11_" class="st7" points="186.1,157 206.8,176.8 206.4,170 189.9,153.8 				"/>
			</g>
			<path id="XMLID_5_" class="st7" d="M21.9,101.6c-0.4,0-16.9,2-16.9,16.2s15.8,16.8,19.4,17.2c9.2,0.7,36.8,0,36.8,0H69
				c0,0-57.3-0.2-57.3-17.1S21.9,101.6,21.9,101.6z"/>
		</g>
		<g>
			<path id="XMLID_14_" class="st8" d="M154.6,93h-76V56.7c0-21.3,17.3-38.6,38.6-38.6l0,0c20.6,0,37.4,16.7,37.4,37.4V93z"/>
			<circle id="XMLID_13_" class="st9" cx="116.6" cy="52.5" r="24.7"/>
			<circle id="XMLID_10_" class="st10" cx="111.2" cy="41.6" r="7.5"/>
			<path id="XMLID_9_" class="st9" d="M111.8,37.3c0,0,3.5,1.6,3.2,4.3C116.7,39.3,114.9,35.6,111.8,37.3z"/>
			<path id="XMLID_7_" class="st11" d="M106.7,43.7c0,0,1.1,1.8,2.7,2.4C107.2,46.2,106.7,43.7,106.7,43.7z"/>
			<g>
				<path id="XMLID_6_" class="st12" d="M101.1,76.9c0,0,0.6,0.2,1.6,0.5s2.4,0.7,4.2,1.1c1.7,0.4,3.8,0.8,6,1.1
					c1.1,0.2,2.3,0.2,3.4,0.3c1.2,0.1,2.4,0.1,3.5,0.1c1.2,0,2.4-0.1,3.5-0.2c1.2-0.2,2.3-0.3,3.4-0.6c0.5-0.1,1.1-0.2,1.6-0.4
					c0.5-0.1,1-0.3,1.5-0.5s1-0.3,1.4-0.5s0.9-0.3,1.3-0.6c0.8-0.4,1.5-0.8,2.2-1.1c0.6-0.4,1.2-0.7,1.6-1c0.9-0.6,1.3-1,1.3-1
					s-0.4,0.4-1.2,1.1c-0.4,0.3-0.9,0.7-1.5,1.2c-0.6,0.4-1.3,0.9-2.1,1.3c-0.4,0.2-0.8,0.4-1.3,0.6c-0.4,0.2-0.9,0.4-1.4,0.6
					c-1,0.4-2,0.7-3.1,1s-2.3,0.5-3.5,0.7c-1.2,0.1-2.4,0.2-3.6,0.3c-2.4,0-4.9-0.2-7.1-0.5c-2.2-0.4-4.3-0.9-6-1.4
					s-3.1-1.1-4.1-1.5C101.7,77.2,101.1,76.9,101.1,76.9z"/>
			</g>
			<g>
				<path id="XMLID_2_" class="st12" d="M108.5,81.3c0,0,0.4,0.1,1.1,0.2s1.8,0.3,3,0.5s2.7,0.3,4.2,0.4c1.6,0.1,3.2,0.2,4.9,0.1
					c0.8,0,1.7-0.1,2.5-0.1c0.8-0.1,1.6-0.2,2.4-0.3c0.8-0.2,1.5-0.2,2.2-0.4c0.7-0.2,1.3-0.3,1.9-0.5c0.6-0.2,1.1-0.4,1.6-0.6
					s0.9-0.4,1.2-0.5c0.7-0.3,1.1-0.5,1.1-0.5s-0.3,0.2-1,0.6c-0.3,0.2-0.7,0.5-1.1,0.7c-0.5,0.2-1,0.5-1.6,0.8
					c-0.6,0.2-1.2,0.5-1.9,0.7s-1.5,0.4-2.2,0.6c-0.8,0.2-1.6,0.3-2.4,0.4s-1.7,0.2-2.5,0.2c-1.7,0-3.4,0-5-0.2
					c-0.8-0.1-1.5-0.2-2.3-0.3c-0.7-0.1-1.4-0.3-2-0.4c-1.2-0.3-2.2-0.6-2.9-0.8C108.9,81.5,108.5,81.3,108.5,81.3z"/>
			</g>
		</g>
	</g>
	<g id="Calque_2_1_">
		<path id="XMLID_3_" class="st13" d="M36.6,94v-2.2c0-46.6,36-84.6,80.8-84.6s80.8,37.9,80.8,84.6V94H36.6z"/>
	</g>
</g>
</svg>
