<?xml version="1.0" encoding="utf-8"?>
<!-- Generator: Adobe Illustrator 19.0.0, SVG Export Plug-In . SVG Version: 6.00 Build 0)  -->
<svg version="1.1" id="Layer_1" xmlns="http://www.w3.org/2000/svg" xmlns:xlink="http://www.w3.org/1999/xlink" x="0px" y="0px"
	 viewBox="0 0 235 235" style="enable-background:new 0 0 235 235;" xml:space="preserve">
<style type="text/css">
	.st0{fill:#FFB864;stroke:#FF7300;stroke-width:4;stroke-miterlimit:10;}
	.st1{fill:#9FD8FF;}
	.st2{fill:#488EFF;}
	.st3{fill:#CAECFF;}
	.st4{fill:#E59A4A;stroke:#FF7300;stroke-width:4;stroke-miterlimit:10;}
	.st5{fill:#D1843F;stroke:#FF7300;stroke-width:4;stroke-miterlimit:10;}
	.st6{fill:#84776D;stroke:#FF7300;stroke-width:4;stroke-miterlimit:10;}
	.st7{fill:#E59A4A;}
	.st8{fill:#ADF240;}
	.st9{fill:#8FD111;}
	.st10{fill:#FFFFFF;}
	.st11{fill:#3A3A3A;}
	.st12{opacity:0.68;fill:#FFFFFF;enable-background:new    ;}
	.st13{opacity:0.3;fill:#9FD8FF;enable-background:new    ;}
	.st14{fill:none;stroke:#488EFF;stroke-miterlimit:10;}
</style>
<g id="XMLID_1_">
	<path id="XMLID_24_" class="st0" d="M231.4,115c-4.2,5.3-7.7,8.3-12,11.7c-3.9-4-10.3-6.5-11.5,7.2H26.5c-13,0-23.5-8.5-23.5-19.1
		c0-5.3,2.6-10,6.9-13.4c4.3-3.5,10.1-5.5,16.6-5.5h181.3c5.1,0,3,9.7,6.9,11.9C220.7,111.3,235.3,110,231.4,115z"/>
	<g id="XMLID_19_">
		<path id="XMLID_28_" class="st1" d="M34.7,92v-2.3c0-47.7,36.8-86.5,82.5-86.5s82.5,38.8,82.5,86.5V92H34.7z"/>
		<path id="XMLID_25_" class="st2" d="M117.2,5.5c44.7,0,80.9,37.5,80.9,84.5H36.3C36.3,43,72.5,5.5,117.2,5.5 M117.2,1.2
			c-46.8,0-84.5,39.7-84.5,88.5V94h3.6H198h3.6v-4.3C201.7,40.9,164,1.2,117.2,1.2L117.2,1.2z"/>
	</g>
	<path id="XMLID_32_" class="st3" d="M190.2,53.6c-3.4,0.4-6.9,0.6-10.5,0.6c-35.9,0-65-21.4-65-47.9l0,0c1,0,1.7,0,2.5,0
		C149.4,6.2,177.2,25.6,190.2,53.6z"/>
	<polygon id="XMLID_6_" class="st4" points="178.5,160.3 55.9,160.3 36.3,134.3 198.1,134.3 	"/>
	<polygon id="XMLID_39_" class="st5" points="158.7,184.2 75.7,184.2 62.5,162.9 171.9,162.9 	"/>
	<polygon id="XMLID_41_" class="st6" points="141,199.5 93.4,199.5 85.8,185.2 148.6,185.2 	"/>
	<g id="XMLID_7_">
		<polygon id="XMLID_42_" class="st0" points="49.9,155 31.2,173 17,186.7 11.4,179.9 26.7,165.3 44.4,148.2 		"/>
		<polygon id="XMLID_10_" class="st0" points="40.3,217.7 32.6,217.7 13.2,190.7 17.9,186.7 		"/>
		<ellipse id="XMLID_9_" class="st0" cx="12.8" cy="183.9" rx="5.4" ry="5.8"/>
		<polygon id="XMLID_13_" class="st0" points="45.9,225.5 28,225.5 25.1,217.7 48.8,217.7 		"/>
		<polygon id="XMLID_40_" class="st7" points="47.9,154 27.3,173.8 27.7,167 44.2,150.8 		"/>
	</g>
	<polygon id="XMLID_38_" class="st0" points="183.8,155 202.6,173 216.8,186.7 222.3,179.9 207.1,165.3 189.4,148.2 	"/>
	<polygon id="XMLID_33_" class="st0" points="218.4,224.9 224.4,220.3 223.5,187 217.3,186.7 	"/>
	<ellipse id="XMLID_23_" class="st0" cx="220.9" cy="183.9" rx="5.4" ry="5.8"/>
	<polygon id="XMLID_21_" class="st0" points="206.7,218.5 220.4,230 227.7,225.9 209.4,210.6 	"/>
	<polygon id="XMLID_17_" class="st7" points="185.8,154 206.5,173.8 206.1,167 189.6,150.8 	"/>
	<path id="XMLID_43_" class="st7" d="M21.6,98.6c-0.4,0-16.9,2-16.9,16.2s15.8,16.8,19.4,17.2c9.2,0.7,36.8,0,36.8,0h7.8
		c0,0-57.3-0.2-57.3-17.1S21.6,98.6,21.6,98.6z"/>
	<path id="XMLID_31_" class="st8" d="M154.3,90h-76V53.7c0-21.3,17.3-38.6,38.6-38.6l0,0c20.6,0,37.4,16.7,37.4,37.4V90z"/>
	<circle id="XMLID_30_" class="st9" cx="116.3" cy="49.5" r="26.1"/>
	<circle id="XMLID_29_" class="st10" cx="116.3" cy="49.5" r="24.7"/>
	<circle id="XMLID_27_" class="st11" cx="110.9" cy="38.6" r="7.5"/>
	<path id="XMLID_26_" class="st10" d="M111.5,34.3c0,0,3.5,1.6,3.2,4.3C116.4,36.3,114.6,32.6,111.5,34.3z"/>
	<path id="XMLID_22_" class="st12" d="M106.4,40.7c0,0,1.1,1.8,2.7,2.4C106.9,43.2,106.4,40.7,106.4,40.7z"/>
	<g>
		<path id="XMLID_20_" class="st9" d="M100.8,73.9c0,0,0.6,0.2,1.6,0.5s2.4,0.7,4.2,1.1c1.7,0.4,3.8,0.8,6,1.1
			c1.1,0.2,2.3,0.2,3.4,0.3c1.2,0.1,2.4,0.1,3.5,0.1c1.2,0,2.4-0.1,3.5-0.2c1.2-0.2,2.3-0.3,3.4-0.6c0.5-0.1,1.1-0.2,1.6-0.4
			c0.5-0.1,1-0.3,1.5-0.5s1-0.3,1.4-0.5s0.9-0.3,1.3-0.6c0.8-0.4,1.5-0.8,2.2-1.1c0.6-0.4,1.2-0.7,1.6-1c0.9-0.6,1.3-1,1.3-1
			s-0.4,0.4-1.2,1.1c-0.4,0.3-0.9,0.7-1.5,1.2c-0.6,0.4-1.3,0.9-2.1,1.3c-0.4,0.2-0.8,0.4-1.3,0.6c-0.4,0.2-0.9,0.4-1.4,0.6
			c-1,0.4-2,0.7-3.1,1s-2.3,0.5-3.5,0.7c-1.2,0.1-2.4,0.2-3.6,0.3c-2.4,0-4.9-0.2-7.1-0.5c-2.2-0.4-4.3-0.9-6-1.4s-3.1-1.1-4.1-1.5
			C101.4,74.2,100.8,73.9,100.8,73.9z"/>
	</g>
	<g>
		<path id="XMLID_18_" class="st9" d="M108.2,78.3c0,0,0.4,0.1,1.1,0.2s1.8,0.3,3,0.5s2.7,0.3,4.2,0.4c1.6,0.1,3.2,0.2,4.9,0.1
			c0.8,0,1.7-0.1,2.5-0.1c0.8-0.1,1.6-0.2,2.4-0.3c0.8-0.2,1.5-0.2,2.2-0.4c0.7-0.2,1.3-0.3,1.9-0.5c0.6-0.2,1.1-0.4,1.6-0.6
			s0.9-0.4,1.2-0.5c0.7-0.3,1.1-0.5,1.1-0.5s-0.3,0.2-1,0.6c-0.3,0.2-0.7,0.5-1.1,0.7c-0.5,0.2-1,0.5-1.6,0.8
			c-0.6,0.2-1.2,0.5-1.9,0.7s-1.5,0.4-2.2,0.6c-0.8,0.2-1.6,0.3-2.4,0.4s-1.7,0.2-2.5,0.2c-1.7,0-3.4,0-5-0.2
			c-0.8-0.1-1.5-0.2-2.3-0.3c-0.7-0.1-1.4-0.3-2-0.4c-1.2-0.3-2.2-0.6-2.9-0.8C108.6,78.5,108.2,78.3,108.2,78.3z"/>
	</g>
	<g>
		<path id="XMLID_16_" class="st9" d="M104.8,22.2c0,0-0.4,0.2-0.9,0.6s-1.5,1.1-2.5,1.8c-1,0.7-2.1,1.7-3.3,2.7
			c-1.2,1.1-2.4,2.1-3.5,3.4c-0.6,0.6-1.1,1.3-1.7,1.8c-0.5,0.6-1,1.3-1.5,1.9c-0.4,0.7-0.9,1.2-1.3,1.8c-0.4,0.6-0.7,1.1-1,1.7
			c-0.3,0.6-0.5,1.1-0.7,1.6c-0.2,0.5-0.4,0.9-0.5,1.2c-0.3,0.7-0.4,1.1-0.4,1.1s0.1-0.4,0.3-1.1c0.1-0.4,0.1-0.8,0.3-1.3
			c0.2-0.5,0.4-1.1,0.6-1.7c0.3-0.6,0.5-1.2,0.8-1.8s0.8-1.3,1.1-2c0.4-0.7,0.9-1.3,1.4-2c0.5-0.6,1.1-1.3,1.6-1.9
			c1.2-1.2,2.4-2.4,3.7-3.4c0.6-0.5,1.2-0.9,1.8-1.4c0.6-0.4,1.2-0.8,1.7-1.1c1.1-0.6,2-1.1,2.6-1.5
			C104.3,22.4,104.8,22.2,104.8,22.2z"/>
	</g>
	<g>
		<path id="XMLID_15_" class="st9" d="M99.4,29.1c0,0-0.1,0.1-0.3,0.2c-0.2,0.2-0.6,0.4-0.9,0.7c-0.4,0.3-0.8,0.6-1.2,1
			c-0.4,0.4-0.9,0.8-1.3,1.3c-0.2,0.2-0.4,0.5-0.6,0.7c-0.2,0.2-0.4,0.5-0.6,0.7c-0.2,0.3-0.3,0.4-0.5,0.7c-0.1,0.2-0.3,0.4-0.4,0.6
			c-0.1,0.2-0.2,0.4-0.3,0.6c-0.1,0.2-0.1,0.3-0.2,0.4c-0.1,0.3-0.2,0.4-0.2,0.4s0-0.1,0.1-0.4c0-0.1,0.1-0.3,0.1-0.5
			c0.1-0.2,0.1-0.4,0.2-0.6c0.1-0.2,0.2-0.4,0.3-0.7c0.1-0.2,0.3-0.5,0.4-0.7c0.2-0.3,0.3-0.5,0.5-0.7c0.2-0.2,0.4-0.5,0.6-0.7
			c0.4-0.4,0.9-0.9,1.4-1.3c0.2-0.2,0.4-0.3,0.7-0.5c0.2-0.2,0.4-0.3,0.6-0.4c0.4-0.2,0.7-0.4,1-0.6C99.3,29.2,99.4,29.1,99.4,29.1z
			"/>
	</g>
	<g id="Calque_2">
		<path id="XMLID_2_" class="st13" d="M36.3,91.1v-2.2c0-46.6,36-84.6,80.8-84.6s80.8,37.9,80.8,84.6v2.2H36.3z"/>
	</g>
	<polyline id="XMLID_14_" class="st14" points="52.1,38.6 61.2,39.3 58.7,45.2 56.6,52.6 63.8,52.6 65.8,57.2 72.3,59 	"/>
	<polyline id="XMLID_12_" class="st14" points="56.6,52.6 53.8,58.2 56.6,63 63.7,65.2 57,69 	"/>
	<polyline id="XMLID_11_" class="st14" points="59.6,43.1 66.3,41.9 68.7,44 72.3,42.9 73.8,35.3 78.3,34.5 	"/>
	<polyline id="XMLID_8_" class="st14" points="162.2,19.5 161.2,23.4 163.3,24.8 163.3,28.3 158.5,31.1 159.7,38.6 164.8,41.9 	"/>
	<polyline id="XMLID_5_" class="st14" points="160.9,29.7 154.3,24.8 149.7,27.5 150.7,30.2 	"/>
	<polyline id="XMLID_4_" class="st0" points="124.7,112.9 142.4,110.3 145.3,116.9 163,110.3 169.3,125.8 185.8,119.7 190.2,109 
		199.7,112.9 	"/>
	<path id="XMLID_3_" class="st8" d="M50.3,136.4c0,0,0.4,2.8,1.6,4.3c1.2,1.4,3.8,2.2,4,3.9s-1.7,3.1-1.1,4.3s1.2,2.3,2.1,2.3
		c0.9,0.1,2.9-1.1,2.5-2.1c-0.4-1-0.9-1.7-1.5-2.3c-0.6-0.7-1.3-2.4-0.3-3c1-0.6,1.3-1.7,3.1-3c1.8-1.3,4.7-2.9,5.5-1.6
		s4.2,2.7,5.7,1.8c1.5-0.8,1.8-3.6,5.3-3.2c3.5,0.4,6.8-0.3,7.8-0.9c0.9-0.7,2.7-0.6,2.7-0.6H50.3z"/>
</g>
</svg>
