<?xml version="1.0" encoding="utf-8"?>
<!-- Generator: Adobe Illustrator 19.0.0, SVG Export Plug-In . SVG Version: 6.00 Build 0)  -->
<svg version="1.1" id="Layer_1" xmlns="http://www.w3.org/2000/svg" xmlns:xlink="http://www.w3.org/1999/xlink" x="0px" y="0px"
	 viewBox="0 0 235 235" style="enable-background:new 0 0 235 235;" xml:space="preserve">
<style type="text/css">
	.st0{fill:none;stroke:#488EFF;stroke-miterlimit:10;}
	.st1{fill:#FFB864;stroke:#FF7300;stroke-width:4;stroke-miterlimit:10;}
	.st2{fill:#9FD8FF;}
	.st3{fill:#488EFF;}
	.st4{fill:#CAECFF;}
	.st5{fill:#E59A4A;stroke:#FF7300;stroke-width:4;stroke-miterlimit:10;}
	.st6{fill:#D1843F;stroke:#FF7300;stroke-width:4;stroke-miterlimit:10;}
	.st7{fill:#84776D;stroke:#FF7300;stroke-width:4;stroke-miterlimit:10;}
	.st8{fill:#E59A4A;}
	.st9{fill:#ADF240;}
	.st10{fill:#8FD111;}
	.st11{fill:#FFFFFF;}
	.st12{fill:#FFA9A9;}
	.st13{fill:#3A3A3A;}
	.st14{opacity:0.68;fill:#FFFFFF;enable-background:new    ;}
	.st15{opacity:0.3;fill:#9FD8FF;enable-background:new    ;}
	.st16{opacity:0.3;fill:none;stroke:#FFFFFF;stroke-miterlimit:10;enable-background:new    ;}
	.st17{fill:#595959;}
	.st18{fill:#FF7300;}
	.st19{fill:#FF4A4A;}
	.st20{fill:#FFD04D;}
	.st21{fill:#4DD1FF;}
	.st22{fill:none;}
	.st23{fill:#A5A5A5;}
</style>
<g id="XMLID_1_">
	<polyline id="XMLID_46_" class="st0" points="160.4,30.7 153.8,25.8 149.2,28.5 150.2,31.2 	"/>
	<path id="XMLID_65_" class="st1" d="M231.4,116c-4.2,5.3-7.7,8.3-12,11.7c-3.9-4-10.3-6.5-11.5,7.2H26.5c-13,0-23.5-8.5-23.5-19.1
		c0-5.3,2.6-10,6.9-13.4c4.3-3.5,10.1-5.5,16.6-5.5h181.3c5.1,0,3,9.7,6.9,11.9C220.7,112.3,235.3,111,231.4,116z"/>
	<g id="XMLID_62_">
		<path id="XMLID_64_" class="st2" d="M34.2,93v-2.3C34.2,43,71,4.2,116.7,4.2s82.5,38.8,82.5,86.5V93H34.2z"/>
		<path id="XMLID_63_" class="st3" d="M116.7,6.5c44.7,0,80.9,37.5,80.9,84.5H35.8C35.8,44,72,6.5,116.7,6.5 M116.7,2.2
			c-46.8,0-84.5,39.7-84.5,88.5V95h3.6h161.7h3.6v-4.3C201.2,41.9,163.5,2.2,116.7,2.2L116.7,2.2z"/>
	</g>
	<path id="XMLID_61_" class="st4" d="M189.7,54.6c-3.4,0.4-6.9,0.6-10.5,0.6c-35.9,0-65-21.4-65-47.9l0,0c1,0,1.7,0,2.5,0
		C148.9,7.2,176.7,26.6,189.7,54.6z"/>
	<polygon id="XMLID_60_" class="st5" points="178,161.3 55.4,161.3 35.8,135.3 197.6,135.3 	"/>
	<polygon id="XMLID_59_" class="st6" points="158.2,185.2 75.2,185.2 62,163.9 171.4,163.9 	"/>
	<polygon id="XMLID_58_" class="st7" points="140.5,200.5 92.9,200.5 85.3,186.2 148.1,186.2 	"/>
	<polygon id="XMLID_57_" class="st1" points="55.2,160 42.6,182.7 33,200 25.7,195.1 36.1,176.7 48,155.1 	"/>
	
		<ellipse id="XMLID_55_" transform="matrix(-0.2927 -0.9562 0.9562 -0.2927 -152.7701 282.82)" class="st1" cx="28.2" cy="197.9" rx="5.8" ry="5.4"/>
	<polygon id="XMLID_53_" class="st8" points="53,159.7 39.1,184.6 37.5,178 48.5,157.7 	"/>
	<polygon id="XMLID_51_" class="st1" points="183.3,156 202.1,174 216.3,187.7 221.8,180.9 206.6,166.3 188.9,149.2 	"/>
	<polygon id="XMLID_50_" class="st1" points="217.9,225.9 223.9,221.3 223,188 216.8,187.7 	"/>
	<ellipse id="XMLID_49_" class="st1" cx="220.4" cy="184.9" rx="5.4" ry="5.8"/>
	<polygon id="XMLID_48_" class="st1" points="205.3,218.9 219,230.4 226.3,226.3 208,211 	"/>
	<polygon id="XMLID_47_" class="st8" points="185.3,155 206,174.8 205.6,168 189.1,151.8 	"/>
	<path id="XMLID_14_" class="st8" d="M21.1,99.6c-0.4,0-16.9,2-16.9,16.2S20,132.6,23.6,133c9.2,0.7,36.8,0,36.8,0h7.8
		c0,0-57.3-0.2-57.3-17.1S21.1,99.6,21.1,99.6z"/>
	<path id="XMLID_43_" class="st9" d="M153.8,91h-76V54.7c0-21.3,17.3-38.6,38.6-38.6l0,0c20.6,0,37.4,16.7,37.4,37.4V91z"/>
	<circle id="XMLID_42_" class="st10" cx="115.8" cy="50.5" r="26.1"/>
	<path id="XMLID_41_" class="st11" d="M140.5,50.5c0,0.8,0,1.6-0.1,2.4c-1.2,12.5-11.8,22.3-24.6,22.3c-6,0-11.6-2.2-15.9-5.8
		c-5.4-4.5-8.8-11.3-8.8-18.9c0-13.6,11.1-24.7,24.7-24.7C129.4,25.8,140.5,36.9,140.5,50.5z"/>
	<path id="XMLID_40_" class="st12" d="M140.3,52.9c-1.2,12.5-11.8,22.3-24.6,22.3c-6,0-11.6-2.2-15.9-5.8c-1.2-1.1-2-1.4-4.2-4.5
		c3.6,2.1,12.7,3.9,17.2,3.9c11.5,0,24.8-9.1,27.6-19.7C140.6,51.1,140.4,51.4,140.3,52.9z"/>
	<circle id="XMLID_39_" class="st13" cx="110.4" cy="39.6" r="7.5"/>
	<path id="XMLID_38_" class="st11" d="M111,35.3c0,0,3.5,1.6,3.2,4.3C115.9,37.3,114.1,33.6,111,35.3z"/>
	<path id="XMLID_37_" class="st14" d="M105.9,41.7c0,0,1.1,1.8,2.7,2.4C106.4,44.2,105.9,41.7,105.9,41.7z"/>
	<g>
		<path id="XMLID_36_" class="st10" d="M100.3,74.9c0,0,0.6,0.2,1.6,0.5s2.4,0.7,4.2,1.1c1.7,0.4,3.8,0.8,6,1.1
			c1.1,0.2,2.3,0.2,3.4,0.3c1.2,0.1,2.4,0.1,3.5,0.1c1.2,0,2.4-0.1,3.5-0.2c1.2-0.2,2.3-0.3,3.4-0.6c0.5-0.1,1.1-0.2,1.6-0.4
			c0.5-0.1,1-0.3,1.5-0.5s1-0.3,1.4-0.5s0.9-0.3,1.3-0.6c0.8-0.4,1.5-0.8,2.2-1.1c0.6-0.4,1.2-0.7,1.6-1c0.9-0.6,1.3-1,1.3-1
			s-0.4,0.4-1.2,1.1c-0.4,0.3-0.9,0.7-1.5,1.2c-0.6,0.4-1.3,0.9-2.1,1.3c-0.4,0.2-0.8,0.4-1.3,0.6c-0.4,0.2-0.9,0.4-1.4,0.6
			c-1,0.4-2,0.7-3.1,1s-2.3,0.5-3.5,0.7c-1.2,0.1-2.4,0.2-3.6,0.3c-2.4,0-4.9-0.2-7.1-0.5c-2.2-0.4-4.3-0.9-6-1.4s-3.1-1.1-4.1-1.5
			C100.9,75.2,100.3,74.9,100.3,74.9z"/>
	</g>
	<g>
		<path id="XMLID_35_" class="st10" d="M107.7,79.3c0,0,0.4,0.1,1.1,0.2s1.8,0.3,3,0.5s2.7,0.3,4.2,0.4c1.6,0.1,3.2,0.2,4.9,0.1
			c0.8,0,1.7-0.1,2.5-0.1c0.8-0.1,1.6-0.2,2.4-0.3c0.8-0.2,1.5-0.2,2.2-0.4c0.7-0.2,1.3-0.3,1.9-0.5c0.6-0.2,1.1-0.4,1.6-0.6
			s0.9-0.4,1.2-0.5c0.7-0.3,1.1-0.5,1.1-0.5s-0.3,0.2-1,0.6c-0.3,0.2-0.7,0.5-1.1,0.7c-0.5,0.2-1,0.5-1.6,0.8
			c-0.6,0.2-1.2,0.5-1.9,0.7s-1.5,0.4-2.2,0.6c-0.8,0.2-1.6,0.3-2.4,0.4s-1.7,0.2-2.5,0.2c-1.7,0-3.4,0-5-0.2
			c-0.8-0.1-1.5-0.2-2.3-0.3c-0.7-0.1-1.4-0.3-2-0.4c-1.2-0.3-2.2-0.6-2.9-0.8C108.1,79.5,107.7,79.3,107.7,79.3z"/>
	</g>
	<g>
		<path id="XMLID_34_" class="st10" d="M104.3,23.2c0,0-0.4,0.2-0.9,0.6s-1.5,1.1-2.5,1.8c-1,0.7-2.1,1.7-3.3,2.7
			c-1.2,1.1-2.4,2.1-3.5,3.4c-0.6,0.6-1.1,1.3-1.7,1.8c-0.5,0.6-1,1.3-1.5,1.9c-0.4,0.7-0.9,1.2-1.3,1.8c-0.4,0.6-0.7,1.1-1,1.7
			c-0.3,0.6-0.5,1.1-0.7,1.6c-0.2,0.5-0.4,0.9-0.5,1.2c-0.3,0.7-0.4,1.1-0.4,1.1s0.1-0.4,0.3-1.1c0.1-0.4,0.1-0.8,0.3-1.3
			c0.2-0.5,0.4-1.1,0.6-1.7c0.3-0.6,0.5-1.2,0.8-1.8s0.8-1.3,1.1-2c0.4-0.7,0.9-1.3,1.4-2c0.5-0.6,1.1-1.3,1.6-1.9
			c1.2-1.2,2.4-2.4,3.7-3.4c0.6-0.5,1.2-0.9,1.8-1.4c0.6-0.4,1.2-0.8,1.7-1.1c1.1-0.6,2-1.1,2.6-1.5
			C103.8,23.4,104.3,23.2,104.3,23.2z"/>
	</g>
	<g>
		<path id="XMLID_33_" class="st10" d="M98.9,30.1c0,0-0.1,0.1-0.3,0.2c-0.2,0.2-0.6,0.4-0.9,0.7c-0.4,0.3-0.8,0.6-1.2,1
			c-0.4,0.4-0.9,0.8-1.3,1.3c-0.2,0.2-0.4,0.5-0.6,0.7c-0.2,0.2-0.4,0.5-0.6,0.7c-0.2,0.3-0.3,0.4-0.5,0.7c-0.1,0.2-0.3,0.4-0.4,0.6
			c-0.1,0.2-0.2,0.4-0.3,0.6c-0.1,0.2-0.1,0.3-0.2,0.4c-0.1,0.3-0.2,0.4-0.2,0.4s0-0.1,0.1-0.4c0-0.1,0.1-0.3,0.1-0.5
			c0.1-0.2,0.1-0.4,0.2-0.6c0.1-0.2,0.2-0.4,0.3-0.7c0.1-0.2,0.3-0.5,0.4-0.7c0.2-0.3,0.3-0.5,0.5-0.7c0.2-0.2,0.4-0.5,0.6-0.7
			c0.4-0.4,0.9-0.9,1.4-1.3c0.2-0.2,0.4-0.3,0.7-0.5c0.2-0.2,0.4-0.3,0.6-0.4c0.4-0.2,0.7-0.4,1-0.6C98.8,30.2,98.9,30.1,98.9,30.1z
			"/>
	</g>
	<g id="Calque_2_2_">
		<path id="XMLID_32_" class="st15" d="M197.4,89.8V92H35.8v-2.2c0-19.2,6.1-37,16.5-51.3l16.6,22.8l1.2-15.2l2,5.2l9.2-9.2
			c0,0,3.3,5.4,3.9,5c0.6-0.4,7.2-7.7,7.2-7.7l-5.1-2.1l6.6-8.8l-8,2l2.1-8.5l-12-5.3c11.9-7.3,25.8-11.4,40.6-11.4
			c15.2,0,29.3,4.3,41.4,11.9l-16.1,15.9l14.8,1.8l-12.3,8l6.8-1.2l-1.3,11.8l9.7-9.5l5.3,3v-6.6l4.1-15.1
			C186.4,40.9,197.4,64,197.4,89.8z"/>
	</g>
	<g id="Calque_2_3_">
		<path id="XMLID_31_" class="st16" d="M197.4,89.8V92H35.8v-2.2c0-19.2,6.1-37,16.5-51.3l16.6,22.8l1.2-15.2l2,5.2l9.2-9.2
			c0,0,3.3,5.4,3.9,5c0.6-0.4,7.2-7.7,7.2-7.7l-5.1-2.1l6.6-8.8l-8,2l2.1-8.5l-12-5.3c11.9-7.3,25.8-11.4,40.6-11.4
			c15.2,0,29.3,4.3,41.4,11.9l-16.1,15.9l14.8,1.8l-12.3,8l6.8-1.2l-1.3,11.8l9.7-9.5l5.3,3v-6.6l4.1-15.1
			C186.4,40.9,197.4,64,197.4,89.8z"/>
	</g>
	<g id="Calque_2_4_">
		<path id="XMLID_30_" class="st16" d="M197.4,89.8V92H35.8v-2.2c0-19.2,6.1-37,16.5-51.3l16.6,22.8l1.2-15.2l2,5.2l9.2-9.2
			c0,0,3.3,5.4,3.9,5c0.6-0.4,7.2-7.7,7.2-7.7l-5.1-2.1l6.6-8.8l-8,2l2.1-8.5l-12-5.3c11.9-7.3,25.8-11.4,40.6-11.4
			c15.2,0,29.3,4.3,41.4,11.9l-16.1,15.9l14.8,1.8l-12.3,8l6.8-1.2l-1.3,11.8l9.7-9.5l5.3,3v-6.6l4.1-15.1
			C186.4,40.9,197.4,64,197.4,89.8z"/>
	</g>
	<g id="Calque_2_5_">
		<path id="XMLID_29_" class="st16" d="M197.4,89.8V92H35.8v-2.2c0-19.2,6.1-37,16.5-51.3l16.6,22.8l1.2-15.2l2,5.2l9.2-9.2
			c0,0,3.3,5.4,3.9,5c0.6-0.4,7.2-7.7,7.2-7.7l-5.1-2.1l6.6-8.8l-8,2l2.1-8.5l-12-5.3c11.9-7.3,25.8-11.4,40.6-11.4
			c15.2,0,29.3,4.3,41.4,11.9l-16.1,15.9l14.8,1.8l-12.3,8l6.8-1.2l-1.3,11.8l9.7-9.5l5.3,3v-6.6l4.1-15.1
			C186.4,40.9,197.4,64,197.4,89.8z"/>
	</g>
	<path id="XMLID_28_" class="st3" d="M104.3,72.4c0,0,18.1,1.5,32.5-8.9c1.2,3-2,4.9-2,4.9s-1.7,1.8-1,2.9s0.9,3.6-0.3,4.2
		c-1.2,0.6-3.3,0.9-2.4-0.8s1.2-3.1,0.7-3.5s-2.5,0-2.5,0S118.2,79.8,104.3,72.4z"/>
	<g>
		<polygon id="XMLID_27_" class="st17" points="137,109.8 123.9,109.8 118.2,113.5 127.6,115.9 123.7,119.5 127.8,123.8 
			135.3,120.3 135.3,126.8 142.5,121.5 148.9,126.8 159.4,118.3 179.9,126.8 205.9,115.9 178.4,107 170.7,113.8 158.6,102.3 		"/>
		<path class="st18" d="M133.3,130.7v-7.3l-5.9,2.8l-6.5-6.8l2.7-2.5l-10.3-2.6l10.1-6.6h13.3l22.4-7.8l11.7,11.1l7.2-6.3l33.7,10.9
			l-31.8,13.3l-20.2-8.4l-10.8,8.8l-6.5-5.3L133.3,130.7z M159.1,115.9l20.8,8.6l20.2-8.4l-21.3-6.9l-8.3,7.2l-12.5-11.9l-20.7,7.2
			h-12.8l-1.4,0.9l8.6,2.2l-5.1,4.7l1.7,1.7l9.1-4.2v5.7l5.3-3.9l6.3,5.2L159.1,115.9z"/>
	</g>
	<g>
		<path class="st17" d="M205.9,115.9l-13.6-4.4v2.1l-2-0.6v-2.1l-1.8-0.6v2.1l-2-0.6v-1.9h0.6l-8.7-2.8l-7.8,6.8l-12.1-11.5
			l-21.6,7.5h-13.1l-5.8,3.8l9.4,2.4l-3.9,3.6l4.1,4.3l7.5-3.5v6.5l7.3-5.3l6.4,5.3l10.5-8.5l15.9,6.6v-2.2l2,0.8v1.8h-0.8l3.4,1.4
			l3.4-1.4h-0.5v-2l2-0.8v2.2l1.8-0.7v-2.2l2-0.8v2.2l1.8-0.7v-2.2l2-0.8v2.2L205.9,115.9z M181.1,109.8v0.1l-0.4-0.1H181.1z
			 M175.3,112.3v-2.5h2v0.8L175.3,112.3z M181.1,125.3h-2v-1.1l0.8,0.3l1.2-0.5V125.3z M182.8,110.5v-0.7h2v1.3L182.8,110.5z"/>
		<path class="st18" d="M192.3,123.7l19.3-8.1L178,104.8l-7.2,6.3L159.1,100l-22.4,7.8h-13.3l-10.1,6.6l10.3,2.6l-2.7,2.5l6.5,6.8
			l5.9-2.8v7.3l9.2-6.6l6.5,5.3l10.8-8.8l20.2,8.4l8.6-3.6h-1.9v-3.5l-1.8,0.7v2.8h-2v-2l-1.8,0.7v1.2h-2v-1.1l-1.8-0.7v1.8h-0.8
			l-1.2-0.5v-2.2l-16.3-6.7l-10.1,8.2l-6.3-5.2l-5.3,3.9v-5.7l-9,4.2l-1.7-1.7l5.1-4.7l-8.6-2.2l1.4-0.9h12.8l20.7-7.2l12.5,11.9
			l4.7-4.1v-2.5h2v0.8l1.5-1.3l1.8,0.6h0.4v0.1l1.8,0.6v-0.7h2v1.3l1.8,0.6v-1.9h2v2.6l1.8,0.6v-3.1h2v3.8l7.8,2.5l-7.8,3.3V123.7z
			 M188.6,121v4.3l1.8-0.7v-4.3L188.6,121z"/>
	</g>
	<circle id="XMLID_17_" class="st19" cx="142.5" cy="115.9" r="2"/>
	<circle id="XMLID_16_" class="st20" cx="148.5" cy="115.9" r="2"/>
	<circle id="XMLID_15_" class="st19" cx="154.5" cy="115.9" r="2"/>
	<path id="XMLID_13_" class="st21" d="M162.5,115.9c0,0.5-0.2,0.9-0.5,1.3l-3-1.2l-0.5,0.4c0-0.1,0-0.3,0-0.4c0-1.1,0.9-2,2-2
		C161.6,113.9,162.5,114.8,162.5,115.9z"/>
	<circle id="XMLID_12_" class="st19" cx="166.5" cy="115.9" r="2"/>
	<line id="XMLID_11_" class="st22" x1="176.5" y1="125.3" x2="175.3" y2="124.8"/>
	<polygon id="XMLID_10_" class="st23" points="177.3,110.6 177.3,123.5 175.3,122.7 175.3,112.3 	"/>
	<polygon id="XMLID_9_" class="st23" points="181.1,110 181.1,124.1 179.9,124.6 179.1,124.2 179.1,109.3 180.7,109.8 	"/>
	<polygon id="XMLID_8_" class="st23" points="184.8,111.2 184.8,122.5 182.8,123.4 182.8,110.5 	"/>
	<polygon id="XMLID_7_" class="st23" points="186.6,111.8 188.6,112.4 188.6,121 186.6,121.8 	"/>
	<polygon id="XMLID_6_" class="st23" points="188.6,125.3 188.6,125.3 188.5,125.3 	"/>
	<polygon id="XMLID_5_" class="st23" points="192.3,113.6 192.3,119.4 190.3,120.2 190.3,113 	"/>
	<path id="XMLID_4_" class="st9" d="M50.7,137.4c0,0,0.4,2.8,1.6,4.3c1.2,1.4,3.8,2.2,4,3.9s-1.7,3.1-1.1,4.3s1.2,2.3,2.1,2.3
		c0.9,0.1,2.9-1.1,2.5-2.1c-0.4-1-0.9-1.7-1.5-2.3c-0.6-0.7-1.3-2.4-0.3-3c0.8-0.5,1.2-1.2,2.2-2.2c0.3-0.3,0.6-0.5,0.9-0.8
		c1.8-1.3,4.7-2.9,5.5-1.6c0.8,1.3,4.2,2.7,5.7,1.8c1.5-0.8,1.8-3.6,5.3-3.2c3.5,0.4,6.8-0.3,7.8-0.9c0.9-0.7,2.7-0.6,2.7-0.6H50.7z
		"/>
	<path id="XMLID_3_" class="st9" d="M70.3,166c0,0,3.1,1.8,7,3.3s7.4-0.1,8,2s1.3,2.9,0,4.4s-1.8,4.4,0,5.5s3.8,0.7,3.9,0
		s-1.1-3.7-1.2-4.8s0.2-3.2,1.2-3.4c1-0.1,4.1,1.3,4.7,0c0.6-1.3,1.4-4.7,3.8-4.4s5.6,0.4,6.8,0s3.8-1.3,5-1.3s4.4-1.1,4.4-1.1H70.3
		z"/>
	<path id="XMLID_2_" class="st9" d="M95.8,166c0,0,3.4,1.3,6.4,4.3c3.6,3.6,7.2,0,7.7,2.1s2.3,0.8,0.9,2.3s-1.8,2.4,0,3.5
		s3.8,0.7,3.9,0s0-1.3,0-2.4c-0.1-1.1-0.9-2.7,0.1-2.8c1-0.1,4.1,1.3,4.7,0c0.6-1.3,3.2-0.6,5.6-0.3s3.8-3.7,4.9-4.2s3.8-1.3,5-1.3
		s4.4-1.1,4.4-1.1H95.8z"/>
</g>
</svg>
