<svg width="235" height="235" xmlns="http://www.w3.org/2000/svg" xmlns:svg="http://www.w3.org/2000/svg">
 <style type="text/css">.st0{fill:#FFB864;stroke:#FF7300;stroke-width:4;stroke-miterlimit:10;}
	.st1{fill:#9FD8FF;}
	.st2{fill:#488EFF;}
	.st3{fill:#CAECFF;}
	.st4{fill:#E59A4A;stroke:#FF7300;stroke-width:4;stroke-miterlimit:10;}
	.st5{fill:#D1843F;stroke:#FF7300;stroke-width:4;stroke-miterlimit:10;}
	.st6{fill:#84776D;stroke:#FF7300;stroke-width:4;stroke-miterlimit:10;}
	.st7{fill:#E59A4A;}
	.st8{fill:#ADF240;}
	.st9{fill:#FFFFFF;}
	.st10{fill:#3A3A3A;}
	.st11{opacity:0.68;fill:#FFFFFF;}
	.st12{fill:#8FD111;}
	.st13{opacity:0.3;fill:#9FD8FF;}</style>
 <g>
  <title>Layer 1</title>
  <path fill="black" d="m30,100l0,-2.3c0,-47.7 36.8,-86.5 82.5,-86.5s82.5,38.8 82.5,86.5l0,2.3l-165,0z" class="st1" id="XMLID_28_"/>
  <path fill="black" d="m112.5,13.5c44.7,0 80.89999,37.5 80.89999,84.5l-161.8,0c0,-47 36.2,-84.5 80.9,-84.5m0,-4.3c-46.8,0 -84.5,39.7 -84.5,88.5l0,4.3l3.6,0l161.7,0l3.59999,0l0,-4.3c0.10001,-48.8 -37.59999,-88.5 -84.39999,-88.5l0,0z" class="st2" id="XMLID_25_"/>
  <path fill="black" d="m190.5,55.6c-3.39999,0.4 -6.89999,0.6 -10.5,0.6c-35.89999,0 -65,-21.4 -65,-47.9l0,0c1,0 1.7,0 2.5,0c32.2,-0.1 60,19.3 73,47.3z" class="st3" id="XMLID_32_"/>
  <polygon transform="rotate(-6.741260051727295 117.49999237060554,149.3000030517579) " fill="black" points="178.8,162.3 56.2,162.3 36.6,136.3 198.4,136.3   " class="st4" id="XMLID_6_"/>
  <polygon transform="rotate(9.294979095458984 117.50000000000027,175.54998779296872) " fill="black" points="159,186.2 76,186.2 62.8,164.9 172.2,164.9   " class="st5" id="XMLID_39_"/>
  <polygon fill="black" points="141.3000030517578,206.5 93.69999694824219,206.5 86.0999984741211,192.1999969482422 148.89999389648438,192.1999969482422 " class="st6" id="XMLID_41_"/>
  <g transform="rotate(169.71682739257812 196.9499969482422,63.850006103515625) " id="XMLID_7_">
   <polygon points="218.20000076293945,32 199.5,50 185.29999923706055,63.69999694824219 179.69999980926514,56.899993896484375 195,42.30000305175781 212.70000076293945,25.199996948242188 " class="st0" id="XMLID_42_"/>
   <polygon points="208.5999984741211,94.69999694824219 200.9000015258789,94.69999694824219 181.5,67.69999694824219 186.20000076293945,63.69999694824219 " class="st0" id="XMLID_10_"/>
   <ellipse ry="5.8" rx="5.4" cy="60.9" cx="181.1" class="st0" id="XMLID_9_"/>
   <polygon points="214.20000076293945,102.5 196.29999923706055,102.5 193.39999961853027,94.69999694824219 217.0999984741211,94.69999694824219 " class="st0" id="XMLID_13_"/>
   <polygon points="216.20000076293945,31 195.60000038146973,50.80000305175781 196,44 212.5,27.800003051757812 " class="st7" id="XMLID_40_"/>
  </g>
  <g transform="rotate(158.87420654296875 28.350006103515625,78.85000610351562) " id="XMLID_14_">
   <polygon points="7.100006103515625,47 25.899993896484375,65 40.100006103515625,78.69999694824219 45.600006103515625,71.89999389648438 30.399993896484375,57.30000305175781 12.699996948242188,40.19999694824219 " class="st0" id="XMLID_38_"/>
   <polygon points="16.800003051757812,109.69999694824219 24.399993896484375,109.69999694824219 43.899993896484375,82.69999694824219 39.19999694824219,78.69999694824219 " class="st0" id="XMLID_33_"/>
   <ellipse ry="5.8" rx="5.4" cy="75.9" cx="44.2" class="st0" id="XMLID_23_"/>
   <polygon points="11.199996948242188,117.5 29.100006103515625,117.5 32,109.69999694824219 8.199996948242188,109.69999694824219 " class="st0" id="XMLID_21_"/>
   <polygon points="9.100006103515625,46 29.800003051757812,65.80000305175781 29.399993896484375,59 12.899993896484375,42.80000305175781 " class="st7" id="XMLID_17_"/>
  </g>
  <path d="m21.9,100.6c-0.4,0 -16.9,2 -16.9,16.2s15.8,16.8 19.4,17.2c9.2,0.7 36.8,0 36.8,0l7.8,0c0,0 -57.3,-0.2 -57.3,-17.1s10.2,-16.3 10.2,-16.3z" class="st7" id="XMLID_43_"/>
  <g transform="rotate(-33.48439025878906 106.60000610351564,85.55000305175784) " id="svg_1">
   <path id="svg_2" d="m144.60001,123l-75.99999,0l0,-36.3c0,-21.3 17.3,-38.6 38.59998,-38.6l0,0c20.60001,0 37.40001,16.7 37.40001,37.4l0,37.5z" class="st8"/>
   <circle id="svg_3" r="24.7" cy="82.5" cx="106.6" class="st9"/>
   <circle id="svg_4" r="7.5" cy="71.6" cx="101.2" class="st10"/>
   <path id="svg_5" d="m101.8,67.3c0,0 3.5,1.6 3.2,4.3c1.7,-2.3 -0.1,-6 -3.2,-4.3z" class="st9"/>
   <path id="svg_6" d="m96.7,73.7c0,0 1.10001,1.8 2.7,2.4c-2.2,0.1 -2.7,-2.4 -2.7,-2.4z" class="st11"/>
   <g id="svg_7">
    <path id="svg_8" d="m91.1,106.9c0,0 0.6,0.2 1.6,0.5c1,0.3 2.4,0.7 4.2,1.1c1.7,0.4 3.8,0.8 6,1.1c1.1,0.2 2.3,0.2 3.4,0.3c1.2,0.1 2.39999,0.1 3.5,0.1c1.2,0 2.39999,-0.1 3.5,-0.2c1.2,-0.2 2.3,-0.3 3.39999,-0.60001c0.5,-0.1 1.10001,-0.2 1.60001,-0.39999c0.5,-0.10001 1,-0.3 1.5,-0.5c0.5,-0.2 1,-0.3 1.39999,-0.5c0.40001,-0.2 0.90001,-0.3 1.3,-0.60001c0.8,-0.39999 1.5,-0.8 2.2,-1.1c0.60001,-0.4 1.2,-0.7 1.60001,-1c0.89999,-0.6 1.3,-1 1.3,-1s-0.40001,0.4 -1.20001,1.1c-0.39999,0.3 -0.89999,0.7 -1.5,1.2c-0.59999,0.4 -1.29999,0.9 -2.09999,1.3c-0.40001,0.2 -0.8,0.4 -1.3,0.60001c-0.39999,0.2 -0.89999,0.39999 -1.39999,0.6c-1,0.4 -2,0.7 -3.10001,1c-1.1,0.3 -2.3,0.5 -3.5,0.7c-1.2,0.1 -2.4,0.2 -3.6,0.3c-2.4,0 -4.9,-0.2 -7.1,-0.5c-2.2,-0.4 -4.3,-0.9 -6,-1.4c-1.7,-0.5 -3.10001,-1.1 -4.10001,-1.5c-1,-0.3 -1.6,-0.6 -1.6,-0.6z" class="st12"/>
   </g>
   <g id="svg_9">
    <path id="svg_10" d="m98.5,111.3c0,0 0.4,0.1 1.1,0.2c0.7,0.1 1.8,0.3 3,0.5c1.2,0.2 2.7,0.3 4.2,0.4c1.6,0.1 3.2,0.2 4.89999,0.1c0.8,0 1.7,-0.1 2.5,-0.1c0.8,-0.1 1.60001,-0.2 2.4,-0.3c0.8,-0.2 1.50001,-0.2 2.2,-0.4c0.7,-0.2 1.3,-0.3 1.89999,-0.5c0.60001,-0.2 1.10001,-0.39999 1.60001,-0.6c0.5,-0.2 0.89999,-0.4 1.2,-0.5c0.7,-0.3 1.10001,-0.5 1.10001,-0.5s-0.3,0.2 -1,0.6c-0.3,0.2 -0.70001,0.5 -1.10001,0.7c-0.5,0.2 -1,0.5 -1.60001,0.8c-0.59999,0.2 -1.2,0.5 -1.89999,0.7c-0.7,0.2 -1.5,0.4 -2.2,0.6c-0.8,0.2 -1.60001,0.3 -2.4,0.4c-0.8,0.1 -1.7,0.2 -2.5,0.2c-1.7,0 -3.4,0 -5,-0.2c-0.8,-0.1 -1.5,-0.2 -2.3,-0.3c-0.7,-0.1 -1.4,-0.3 -2,-0.4c-1.2,-0.3 -2.2,-0.6 -2.9,-0.8c-0.8,-0.4 -1.2,-0.6 -1.2,-0.6z" class="st12"/>
   </g>
  </g>
  <path fill="black" d="m231.7,117c0,5.3 -2.59999,10 -6.89999,13.39999c-4.3,3.5 -10.10001,5.5 -16.60001,5.5l-181.4,0c-13,0 -23.5,-8.49999 -23.5,-19.09999c0,-5.3 2.6,-10 6.9,-13.4c4.3,-3.5 10.1,-5.5 16.6,-5.5l181.30001,0c13,0.1 23.59999,8.6 23.59999,19.1z" class="st0" id="XMLID_24_"/>
  <g id="Calque_2">
   <path d="m33.6,96l0,-2.2c0,-46.60001 36,-84.60001 80.8,-84.60001s80.8,37.90001 80.8,84.60001l0,2.2l-161.6,0z" class="st13" id="XMLID_2_"/>
  </g>
 </g>
</svg>