<svg width="235" height="235" xmlns="http://www.w3.org/2000/svg" xmlns:svg="http://www.w3.org/2000/svg">
 <style type="text/css">.st0{fill:none;stroke:#488EFF;stroke-miterlimit:10;}
    .st1{fill:#FFB864;stroke:#FF7300;stroke-width:4;stroke-miterlimit:10;}
    .st2{fill:#9FD8FF;}
    .st3{fill:#488EFF;}
    .st4{fill:#CAECFF;}
    .st5{fill:#E59A4A;stroke:#FF7300;stroke-width:4;stroke-miterlimit:10;}
    .st6{fill:#D1843F;stroke:#FF7300;stroke-width:4;stroke-miterlimit:10;}
    .st7{fill:#84776D;stroke:#FF7300;stroke-width:4;stroke-miterlimit:10;}
    .st8{fill:#E59A4A;}
    .st9{fill:#ADF240;}
    .st10{fill:#8FD111;}
    .st11{fill:#FFFFFF;}
    .st12{fill:#FFA9A9;}
    .st13{fill:#3A3A3A;}
    .st14{opacity:0.68;fill:#FFFFFF;enable-background:new    ;}
    .st15{opacity:0.3;fill:#9FD8FF;enable-background:new    ;}
    .st16{opacity:0.3;fill:none;stroke:#FFFFFF;stroke-miterlimit:10;enable-background:new    ;}
    .st17{fill:#595959;}
    .st18{fill:#FF7300;}
    .st19{fill:#FF4A4A;}
    .st20{fill:#FFD04D;}
    .st21{fill:#4DD1FF;}
    .st22{fill:none;}
    .st23{fill:#A5A5A5;}</style>

 <g>
  <title>Layer 1</title>
  <g id="XMLID_1_">
   <polyline points="160.4,30.7 153.8,25.8 149.2,28.5 150.2,31.2  " class="st0" id="XMLID_46_"/>
   <path d="m231.39999,116c-4.2,5.3 -7.7,8.3 -12,11.7c-3.90001,-4 -10.3,-6.5 -11.5,7.2l-181.39999,0c-13,0 -23.5,-8.49999 -23.5,-19.09999c0,-5.3 2.6,-10 6.9,-13.4c4.3,-3.5 10.1,-5.5 16.6,-5.5l181.3,0c5.09999,0 3,9.7 6.89999,11.9c6,3.5 20.60001,2.2 16.7,7.2z" class="st1" id="XMLID_65_"/>
   <g id="XMLID_62_">
    <path d="m34.2,93l0,-2.3c0,-47.7 36.8,-86.5 82.5,-86.5s82.5,38.8 82.5,86.5l0,2.3l-165,0z" class="st2" id="XMLID_64_"/>
    <path d="m116.7,6.5c44.7,0 80.90001,37.5 80.90001,84.5l-161.80001,0c0,-47 36.2,-84.5 80.9,-84.5m0,-4.3c-46.8,0 -84.5,39.7 -84.5,88.5l0,4.3l3.6,0l161.69999,0l3.60001,0l0,-4.3c0.10001,-48.8 -37.59999,-88.5 -84.39999,-88.5l0,0z" class="st3" id="XMLID_63_"/>
   </g>
   <path d="m189.7,54.6c-3.39999,0.4 -6.89999,0.6 -10.5,0.6c-35.89999,0 -65,-21.4 -65,-47.9l0,0c1,0 1.7,0 2.5,0c32.2,-0.1 60,19.3 73,47.3z" class="st4" id="XMLID_61_"/>
   <polygon points="178,161.3 55.4,161.3 35.8,135.3 197.6,135.3  " class="st5" id="XMLID_60_"/>
   <polygon points="158.2,185.2 75.2,185.2 62,163.9 171.4,163.9  " class="st6" id="XMLID_59_"/>
   <polygon points="140.5,200.5 92.9,200.5 85.3,186.2 148.1,186.2  " class="st7" id="XMLID_58_"/>
   <polygon points="55.2,160 42.6,182.7 33,200 25.7,195.1 36.1,176.7 48,155.1  " class="st1" id="XMLID_57_"/>
   <ellipse ry="5.4" rx="5.8" cy="197.9" cx="28.2" class="st1" transform="matrix(-0.2927 -0.9562 0.9562 -0.2927 -152.7701 282.82)" id="XMLID_55_"/>
   <polygon points="53,159.7 39.1,184.6 37.5,178 48.5,157.7  " class="st8" id="XMLID_53_"/>
   <polygon points="183.3,156 202.1,174 216.3,187.7 221.8,180.9 206.6,166.3 188.9,149.2  " class="st1" id="XMLID_51_"/>
   <polygon points="217.9,225.9 223.9,221.3 223,188 216.8,187.7  " class="st1" id="XMLID_50_"/>
   <ellipse ry="5.8" rx="5.4" cy="184.9" cx="220.4" class="st1" id="XMLID_49_"/>
   <polygon points="205.3,218.9 219,230.4 226.3,226.3 208,211  " class="st1" id="XMLID_48_"/>
   <polygon points="185.3,155 206,174.8 205.6,168 189.1,151.8  " class="st8" id="XMLID_47_"/>
   <path d="m21.1,99.6c-0.4,0 -16.9,2 -16.9,16.2s15.8,16.8 19.4,17.2c9.2,0.7 36.8,0 36.8,0l7.8,0c0,0 -57.3,-0.2 -57.3,-17.1s10.2,-16.3 10.2,-16.3z" class="st8" id="XMLID_14_"/>
   <path d="m153.8,91l-76,0l0,-36.3c0,-21.3 17.3,-38.6 38.6,-38.6l0,0c20.6,0 37.4,16.7 37.4,37.4l0,37.5z" class="st9" id="XMLID_43_"/>
   <circle r="26.1" cy="50.5" cx="115.8" class="st10" id="XMLID_42_"/>
   <path d="m140.5,50.5c0,0.8 0,1.6 -0.10001,2.4c-1.2,12.5 -11.79999,22.3 -24.59999,22.3c-6,0 -11.60001,-2.2 -15.9,-5.8c-5.4,-4.5 -8.8,-11.3 -8.8,-18.9c0,-13.6 11.1,-24.7 24.7,-24.7c13.59999,0 24.7,11.1 24.7,24.7z" class="st11" id="XMLID_41_"/>
   <path d="m140.3,52.9c-1.2,12.5 -11.8,22.3 -24.60001,22.3c-6,0 -11.6,-2.2 -15.89999,-5.8c-1.2,-1.1 -2,-1.4 -4.2,-4.5c3.6,2.1 12.7,3.9 17.2,3.9c11.5,0 24.8,-9.1 27.59999,-19.7c0.20001,2 0,2.3 -0.09999,3.8z" class="st12" id="XMLID_40_"/>
   <circle r="7.5" cy="39.6" cx="110.4" class="st13" id="XMLID_39_"/>
   <path d="m111,35.3c0,0 3.5,1.6 3.2,4.3c1.7,-2.3 -0.1,-6 -3.2,-4.3z" class="st11" id="XMLID_38_"/>
   <path d="m105.9,41.7c0,0 1.1,1.8 2.7,2.4c-2.2,0.1 -2.7,-2.4 -2.7,-2.4z" class="st14" id="XMLID_37_"/>
   <g id="svg_1">
    <path d="m100.3,74.9c0,0 0.6,0.2 1.6,0.5s2.4,0.7 4.2,1.1c1.7,0.4 3.8,0.8 6,1.1c1.1,0.2 2.3,0.2 3.4,0.3c1.2,0.1 2.4,0.1 3.5,0.1c1.2,0 2.4,-0.1 3.5,-0.2c1.2,-0.2 2.3,-0.3 3.4,-0.60001c0.5,-0.1 1.1,-0.2 1.6,-0.39999c0.5,-0.10001 1,-0.3 1.5,-0.5s1,-0.3 1.39999,-0.5s0.90001,-0.3 1.3,-0.60001c0.8,-0.39999 1.5,-0.8 2.2,-1.1c0.60001,-0.4 1.20001,-0.7 1.60001,-1c0.89999,-0.6 1.3,-1 1.3,-1s-0.40001,0.4 -1.2,1.1c-0.40001,0.3 -0.90001,0.7 -1.5,1.2c-0.60001,0.4 -1.3,0.9 -2.10001,1.3c-0.39999,0.2 -0.8,0.4 -1.3,0.60001c-0.39999,0.2 -0.89999,0.39999 -1.39999,0.6c-1,0.4 -2,0.7 -3.10001,1s-2.3,0.5 -3.5,0.7c-1.2,0.1 -2.39999,0.2 -3.6,0.3c-2.4,0 -4.9,-0.2 -7.1,-0.5c-2.2,-0.4 -4.3,-0.9 -6,-1.4s-3.1,-1.1 -4.1,-1.5c-1,-0.3 -1.6,-0.6 -1.6,-0.6z" class="st10" id="XMLID_36_"/>
   </g>
   <g id="svg_2">
    <path d="m107.7,79.3c0,0 0.4,0.1 1.10001,0.2s1.8,0.3 3,0.5s2.7,0.3 4.2,0.4c1.6,0.1 3.2,0.2 4.9,0.1c0.8,0 1.7,-0.1 2.5,-0.1c0.8,-0.1 1.6,-0.2 2.4,-0.3c0.8,-0.2 1.5,-0.2 2.2,-0.4c0.7,-0.2 1.3,-0.3 1.89999,-0.5c0.60001,-0.2 1.10001,-0.39999 1.60001,-0.6s0.89999,-0.4 1.2,-0.5c0.7,-0.3 1.10001,-0.5 1.10001,-0.5s-0.3,0.2 -1,0.6c-0.3,0.2 -0.7,0.5 -1.10001,0.7c-0.5,0.2 -1,0.5 -1.59999,0.8c-0.60001,0.2 -1.20001,0.5 -1.90001,0.7s-1.5,0.4 -2.2,0.6c-0.8,0.2 -1.6,0.3 -2.4,0.4s-1.7,0.2 -2.5,0.2c-1.7,0 -3.4,0 -5,-0.2c-0.8,-0.1 -1.5,-0.2 -2.3,-0.3c-0.7,-0.1 -1.4,-0.3 -2,-0.4c-1.2,-0.3 -2.2,-0.6 -2.9,-0.8c-0.8,-0.4 -1.2,-0.6 -1.2,-0.6z" class="st10" id="XMLID_35_"/>
   </g>
   <g id="svg_3">
    <path d="m104.3,23.2c0,0 -0.4,0.2 -0.9,0.6s-1.5,1.1 -2.5,1.8c-1,0.7 -2.1,1.7 -3.3,2.7c-1.2,1.1 -2.4,2.1 -3.5,3.4c-0.6,0.6 -1.1,1.3 -1.7,1.8c-0.5,0.6 -1,1.3 -1.5,1.9c-0.4,0.7 -0.9,1.2 -1.3,1.8c-0.4,0.6 -0.7,1.1 -1,1.7c-0.3,0.6 -0.5,1.1 -0.7,1.6c-0.2,0.5 -0.4,0.9 -0.5,1.2c-0.3,0.7 -0.4,1.1 -0.4,1.1s0.1,-0.4 0.3,-1.1c0.1,-0.4 0.1,-0.8 0.3,-1.3c0.2,-0.5 0.4,-1.1 0.6,-1.7c0.3,-0.6 0.5,-1.2 0.8,-1.8s0.8,-1.3 1.1,-2c0.4,-0.7 0.9,-1.3 1.4,-2c0.5,-0.6 1.1,-1.3 1.6,-1.9c1.2,-1.2 2.4,-2.4 3.7,-3.4c0.6,-0.5 1.2,-0.9 1.8,-1.4c0.6,-0.4 1.2,-0.8 1.7,-1.1c1.1,-0.6 2,-1.1 2.6,-1.5c0.9,-0.2 1.4,-0.4 1.4,-0.4z" class="st10" id="XMLID_34_"/>
   </g>
   <g id="svg_4">
    <path d="m98.9,30.1c0,0 -0.1,0.1 -0.3,0.2c-0.2,0.2 -0.6,0.4 -0.9,0.7c-0.39999,0.3 -0.8,0.6 -1.2,1c-0.4,0.4 -0.9,0.8 -1.3,1.3c-0.2,0.2 -0.39999,0.5 -0.6,0.7c-0.2,0.2 -0.4,0.5 -0.6,0.7c-0.2,0.3 -0.3,0.4 -0.5,0.7c-0.1,0.2 -0.3,0.4 -0.4,0.6c-0.1,0.2 -0.2,0.4 -0.3,0.6c-0.10001,0.2 -0.10001,0.3 -0.2,0.4c-0.1,0.3 -0.2,0.4 -0.2,0.4s0,-0.1 0.1,-0.4c0,-0.1 0.1,-0.3 0.1,-0.5c0.1,-0.2 0.1,-0.4 0.2,-0.6c0.1,-0.2 0.2,-0.4 0.3,-0.7c0.1,-0.2 0.3,-0.5 0.4,-0.7c0.2,-0.3 0.3,-0.5 0.5,-0.7c0.2,-0.2 0.4,-0.5 0.6,-0.7c0.4,-0.4 0.9,-0.9 1.4,-1.3c0.2,-0.2 0.4,-0.3 0.7,-0.5c0.2,-0.2 0.4,-0.3 0.60001,-0.4c0.39999,-0.2 0.7,-0.4 1,-0.6c0.5,-0.1 0.6,-0.2 0.6,-0.2z" class="st10" id="XMLID_33_"/>
   </g>
   <g id="Calque_2_2_">
    <path d="m197.39999,89.8l0,2.2l-161.59999,0l0,-2.2c0,-19.2 6.1,-37 16.5,-51.3l16.6,22.8l1.2,-15.2l2,5.2l9.2,-9.2c0,0 3.3,5.4 3.89999,5c0.60001,-0.4 7.2,-7.7 7.2,-7.7l-5.1,-2.1l6.6,-8.8l-8,2l2.1,-8.5l-12,-5.3c11.9,-7.3 25.8,-11.4 40.6,-11.4c15.2,0 29.3,4.3 41.4,11.9l-16.10001,15.9l14.8,1.8l-12.3,8l6.8,-1.2l-1.3,11.8l9.70001,-9.5l5.29999,3l0,-6.6l4.10001,-15.1c17.39999,15.6 28.39999,38.7 28.39999,64.5z" class="st15" id="XMLID_32_"/>
   </g>
   <g id="Calque_2_3_">
    <path d="m197.39999,89.8l0,2.2l-161.59999,0l0,-2.2c0,-19.2 6.1,-37 16.5,-51.3l16.6,22.8l1.2,-15.2l2,5.2l9.2,-9.2c0,0 3.3,5.4 3.89999,5c0.60001,-0.4 7.2,-7.7 7.2,-7.7l-5.1,-2.1l6.6,-8.8l-8,2l2.1,-8.5l-12,-5.3c11.9,-7.3 25.8,-11.4 40.6,-11.4c15.2,0 29.3,4.3 41.4,11.9l-16.10001,15.9l14.8,1.8l-12.3,8l6.8,-1.2l-1.3,11.8l9.70001,-9.5l5.29999,3l0,-6.6l4.10001,-15.1c17.39999,15.6 28.39999,38.7 28.39999,64.5z" class="st16" id="XMLID_31_"/>
   </g>
   <g id="Calque_2_4_">
    <path d="m197.39999,89.8l0,2.2l-161.59999,0l0,-2.2c0,-19.2 6.1,-37 16.5,-51.3l16.6,22.8l1.2,-15.2l2,5.2l9.2,-9.2c0,0 3.3,5.4 3.89999,5c0.60001,-0.4 7.2,-7.7 7.2,-7.7l-5.1,-2.1l6.6,-8.8l-8,2l2.1,-8.5l-12,-5.3c11.9,-7.3 25.8,-11.4 40.6,-11.4c15.2,0 29.3,4.3 41.4,11.9l-16.10001,15.9l14.8,1.8l-12.3,8l6.8,-1.2l-1.3,11.8l9.70001,-9.5l5.29999,3l0,-6.6l4.10001,-15.1c17.39999,15.6 28.39999,38.7 28.39999,64.5z" class="st16" id="XMLID_30_"/>
   </g>
   <g id="Calque_2_5_">
    <path d="m197.39999,89.8l0,2.2l-161.59999,0l0,-2.2c0,-19.2 6.1,-37 16.5,-51.3l16.6,22.8l1.2,-15.2l2,5.2l9.2,-9.2c0,0 3.3,5.4 3.89999,5c0.60001,-0.4 7.2,-7.7 7.2,-7.7l-5.1,-2.1l6.6,-8.8l-8,2l2.1,-8.5l-12,-5.3c11.9,-7.3 25.8,-11.4 40.6,-11.4c15.2,0 29.3,4.3 41.4,11.9l-16.10001,15.9l14.8,1.8l-12.3,8l6.8,-1.2l-1.3,11.8l9.70001,-9.5l5.29999,3l0,-6.6l4.10001,-15.1c17.39999,15.6 28.39999,38.7 28.39999,64.5z" class="st16" id="XMLID_29_"/>
   </g>
   <path d="m104.3,72.4c0,0 18.1,1.5 32.5,-8.9c1.2,3 -2,4.9 -2,4.9s-1.7,1.8 -1,2.9s0.89999,3.6 -0.3,4.2c-1.2,0.6 -3.3,0.9 -2.39999,-0.8s1.2,-3.1 0.7,-3.5s-2.5,0 -2.5,0s-11.10001,8.60001 -25,1.2z" class="st3" id="XMLID_28_"/>
   <g id="svg_5">
    <polygon points="137,109.8 123.9,109.8 118.2,113.5 127.6,115.9 123.7,119.5 127.8,123.8     135.3,120.3 135.3,126.8 142.5,121.5 148.9,126.8 159.4,118.3 179.9,126.8 205.9,115.9 178.4,107 170.7,113.8 158.6,102.3   " class="st17" id="XMLID_27_"/>
    <path id="svg_6" d="m133.3,130.7l0,-7.3l-5.9,2.8l-6.5,-6.8l2.7,-2.5l-10.3,-2.6l10.1,-6.60001l13.3,0l22.40001,-7.8l11.7,11.1l7.2,-6.3l33.7,10.9l-31.8,13.3l-20.2,-8.39999l-10.8,8.8l-6.5,-5.3l-9.09999,6.7zm25.8,-14.8l20.8,8.6l20.2,-8.4l-21.3,-6.9l-8.29999,7.2l-12.5,-11.9l-20.70001,7.2l-12.8,0l-1.39999,0.9l8.6,2.2l-5.1,4.7l1.69999,1.7l9.10001,-4.2l0,5.7l5.3,-3.89999l6.3,5.2l10.09999,-8.1z" class="st18"/>
   </g>
   <g id="svg_7">
    <path id="svg_8" d="m205.89999,115.9l-13.60001,-4.4l0,2.1l-2,-0.6l0,-2.1l-1.8,-0.6l0,2.1l-2,-0.6l0,-1.9l0.60001,0l-8.7,-2.8l-7.8,6.8l-12.10001,-11.5l-21.59999,7.5l-13.10001,0l-5.8,3.8l9.39999,2.4l-3.89999,3.6l4.1,4.3l7.5,-3.5l0,6.5l7.3,-5.3l6.39999,5.3l10.5,-8.5l15.90001,6.6l0,-2.2l2,0.8l0,1.8l-0.8,0l3.39999,1.4l3.40001,-1.4l-0.5,0l0,-2l2,-0.8l0,2.2l1.79999,-0.7l0,-2.2l2,-0.8l0,2.2l1.8,-0.7l0,-2.2l2,-0.8l0,2.2l13.60001,-6zm-24.79999,-6.1l0,0.1l-0.39999,-0.1l0.39999,0zm-5.8,2.5l0,-2.5l2,0l0,0.8l-2,1.7zm5.8,13l-2,0l0,-1.10001l0.8,0.3l1.2,-0.5l0,1.3zm1.7,-14.8l0,-0.7l2,0l0,1.3l-2,-0.6z" class="st17"/>
    <path id="svg_9" d="m192.3,123.7l19.3,-8.1l-33.60001,-10.8l-7.2,6.3l-11.7,-11.1l-22.39999,7.8l-13.3,0l-10.1,6.6l10.3,2.6l-2.7,2.5l6.5,6.8l5.89999,-2.8l0,7.3l9.20001,-6.60001l6.5,5.3l10.79999,-8.8l20.20001,8.40001l8.59999,-3.60001l-1.89999,0l0,-3.5l-1.8,0.7l0,2.8l-2,0l0,-2l-1.8,0.7l0,1.2l-2,0l0,-1.1l-1.8,-0.7l0,1.8l-0.79999,0l-1.20001,-0.5l0,-2.2l-16.29999,-6.7l-10.10001,8.2l-6.3,-5.2l-5.3,3.9l0,-5.7l-9,4.2l-1.69999,-1.7l5.1,-4.7l-8.6,-2.2l1.39999,-0.9l12.8,0l20.70001,-7.2l12.5,11.9l4.7,-4.1l0,-2.5l2,0l0,0.8l1.5,-1.3l1.8,0.6l0.39999,0l0,0.1l1.8,0.60001l0,-0.7l2,0l0,1.3l1.8,0.6l0,-1.9l2,0l0,2.6l1.79999,0.60001l0,-3.10001l2,0l0,3.8l7.8,2.5l-7.8,3.3l0,3.89999zm-3.7,-2.7l0,4.3l1.8,-0.7l0,-4.3l-1.8,0.7z" class="st18"/>
   </g>
   <circle r="2" cy="115.9" cx="142.5" class="st19" id="XMLID_17_"/>
   <circle r="2" cy="115.9" cx="148.5" class="st20" id="XMLID_16_"/>
   <circle r="2" cy="115.9" cx="154.5" class="st19" id="XMLID_15_"/>
   <path d="m162.5,115.9c0,0.5 -0.2,0.9 -0.5,1.3l-3,-1.2l-0.5,0.4c0,-0.1 0,-0.3 0,-0.4c0,-1.1 0.89999,-2 2,-2c1.10001,-0.1 2,0.8 2,1.9z" class="st21" id="XMLID_13_"/>
   <circle r="2" cy="115.9" cx="166.5" class="st19" id="XMLID_12_"/>
   <line y2="124.8" x2="175.3" y1="125.3" x1="176.5" class="st22" id="XMLID_11_"/>
   <polygon points="177.3,110.6 177.3,123.5 175.3,122.7 175.3,112.3  " class="st23" id="XMLID_10_"/>
   <polygon points="181.1,110 181.1,124.1 179.9,124.6 179.1,124.2 179.1,109.3 180.7,109.8  " class="st23" id="XMLID_9_"/>
   <polygon points="184.8,111.2 184.8,122.5 182.8,123.4 182.8,110.5  " class="st23" id="XMLID_8_"/>
   <polygon points="186.6,111.8 188.6,112.4 188.6,121 186.6,121.8  " class="st23" id="XMLID_7_"/>
   <polygon points="188.6,125.3 188.6,125.3 188.5,125.3  " class="st23" id="XMLID_6_"/>
   <polygon points="192.3,113.6 192.3,119.4 190.3,120.2 190.3,113  " class="st23" id="XMLID_5_"/>
   <path d="m50.7,137.39999c0,0 0.4,2.8 1.6,4.3c1.2,1.39999 3.8,2.2 4,3.89999s-1.7,3.10001 -1.1,4.3s1.2,2.3 2.1,2.3c0.9,0.09999 2.9,-1.10001 2.5,-2.10001c-0.4,-1 -0.9,-1.7 -1.5,-2.3c-0.6,-0.7 -1.3,-2.39999 -0.3,-3c0.8,-0.5 1.2,-1.2 2.2,-2.2c0.3,-0.3 0.6,-0.5 0.9,-0.8c1.8,-1.3 4.7,-2.89999 5.5,-1.59999c0.8,1.29999 4.2,2.7 5.7,1.79999c1.5,-0.79999 1.8,-3.59999 5.3,-3.2c3.5,0.40001 6.8,-0.3 7.8,-0.89999c0.9,-0.7 2.7,-0.60001 2.7,-0.60001l-37.4,0l0,0.10001z" class="st9" id="XMLID_4_"/>
   <path d="m70.3,166c0,0 3.1,1.8 7,3.3s7.39999,-0.10001 8,2s1.3,2.89999 0,4.39999s-1.8,4.40001 0,5.5s3.8,0.7 3.89999,0s-1.1,-3.7 -1.2,-4.8s0.2,-3.2 1.2,-3.39999c1,-0.10001 4.10001,1.3 4.7,0c0.6,-1.3 1.4,-4.7 3.8,-4.39999s5.60001,0.39999 6.8,0s3.8,-1.3 5,-1.3s4.4,-1.10001 4.4,-1.10001l-43.6,0l0,-0.2z" class="st9" id="XMLID_3_"/>
   <path d="m95.8,166c0,0 3.39999,1.3 6.39999,4.3c3.60001,3.59999 7.2,0 7.7,2.09999s2.3,0.8 0.9,2.3s-1.8,2.40001 0,3.5s3.8,0.7 3.89999,0s0,-1.3 0,-2.39999c-0.1,-1.10001 -0.89999,-2.7 0.10001,-2.8c1,-0.10001 4.1,1.3 4.7,0c0.6,-1.3 3.2,-0.60001 5.6,-0.3s3.8,-3.7 4.9,-4.2s3.8,-1.3 5,-1.3s4.39999,-1.09999 4.39999,-1.09999l-43.59999,0l0,-0.10001z" class="st9" id="XMLID_2_"/>
  </g>
 </g>
</svg>
